<svg xmlns="http://www.w3.org/2000/svg" xmlns:xlink="http://www.w3.org/1999/xlink" width="512" zoomAndPan="magnify" viewBox="0 0 384 383.999986" height="512" preserveAspectRatio="xMidYMid meet" version="1.0"><defs><clipPath id="c5f8bd82ff"><path d="M 2.234375 94 L 191 94 L 191 316.859375 L 2.234375 316.859375 Z M 2.234375 94 " clip-rule="nonzero"/></clipPath></defs><path fill="#ffebea" d="M 136.917969 119.609375 C 162.863281 81.996094 203.367188 91.292969 212.226562 96.554688 C 221.945312 102.332031 231.269531 109.230469 237.78125 118.476562 C 247.984375 132.945312 250.144531 152.734375 243.304688 169.066406 C 236.464844 185.402344 220.851562 197.742188 203.386719 200.617188 C 190.714844 202.699219 177.632812 200.054688 165.742188 195.210938 C 146.71875 187.453125 118.882812 145.757812 136.917969 119.609375 Z M 136.917969 119.609375 " fill-opacity="1" fill-rule="nonzero"/><path fill="#ffebea" d="M 215.667969 78.335938 C 219.070312 87.820312 225.539062 96.539062 234.625 100.882812 C 243.714844 105.230469 255.515625 104.429688 262.863281 97.535156 C 264.980469 95.546875 266.6875 93.125 267.851562 90.460938 C 271.582031 81.890625 269.179688 71.441406 263.289062 64.191406 C 257.398438 56.933594 248.757812 50.75 239.414062 50.515625 C 216.605469 49.933594 214.082031 73.902344 215.667969 78.335938 Z M 215.667969 78.335938 " fill-opacity="1" fill-rule="nonzero"/><g clip-path="url(#c5f8bd82ff)"><path fill="#9a5c6b" d="M 145.667969 126.972656 C 146.847656 126.53125 148.03125 126.089844 149.207031 125.640625 C 156.742188 122.753906 164.125 119.496094 171.273438 115.753906 C 176.238281 113.148438 181.441406 111.359375 186.933594 110.371094 C 189.253906 109.953125 190.554688 111.433594 189.984375 113.757812 C 188.992188 117.816406 186.679688 121.085938 183.738281 123.890625 C 178.976562 128.429688 173.398438 131.757812 167.425781 134.457031 C 164.585938 135.738281 161.792969 137.132812 159.0625 138.6875 C 161.304688 138 163.554688 137.335938 165.789062 136.617188 C 172.019531 134.613281 178.3125 132.878906 184.824219 132.042969 C 185.613281 131.941406 186.402344 131.796875 187.195312 132.058594 C 188.257812 132.40625 188.878906 133.25 188.640625 134.328125 C 187.832031 137.964844 186.589844 141.304688 183.507812 143.785156 C 179.941406 146.65625 175.964844 148.660156 171.691406 150.136719 C 166.332031 151.992188 160.945312 153.773438 155.679688 155.886719 C 155.386719 156 155.09375 156.121094 154.804688 156.417969 C 155.9375 156.5625 157.074219 156.710938 158.207031 156.851562 C 161.417969 157.25 164.546875 157.976562 167.574219 159.128906 C 168.5 159.484375 169.386719 159.925781 170.171875 160.539062 C 171.246094 161.375 171.46875 162.484375 170.820312 163.679688 C 170.386719 164.484375 169.726562 165.089844 169.035156 165.660156 C 165.753906 168.390625 161.9375 169.714844 157.722656 170.070312 C 155.453125 170.261719 153.195312 170.242188 150.925781 170.117188 C 148.511719 169.980469 146.183594 170.257812 143.894531 171.164062 C 139.1875 173.035156 134.210938 173.910156 129.257812 174.808594 C 128.039062 175.027344 127.105469 175.488281 126.273438 176.402344 C 124.128906 178.742188 121.710938 180.777344 119.160156 182.65625 C 118.441406 183.183594 117.691406 183.671875 116.917969 184.121094 C 115.679688 184.828125 115.714844 184.796875 116.046875 186.171875 C 116.871094 189.597656 118.972656 192.222656 121.273438 194.734375 C 121.480469 194.964844 121.738281 195.054688 122.03125 195.085938 C 124.683594 195.34375 127.273438 195.242188 129.617188 193.757812 C 135.574219 189.980469 141.523438 186.207031 147.121094 181.894531 C 154.628906 176.117188 162.765625 171.320312 171.253906 167.136719 C 174.496094 165.542969 177.933594 164.421875 181.511719 163.859375 C 184.414062 163.402344 186.945312 164.914062 187.660156 167.386719 C 187.988281 168.515625 187.804688 169.605469 187.410156 170.667969 C 186.351562 173.511719 184.761719 176.042969 182.832031 178.363281 C 181.441406 180.03125 179.953125 181.617188 178.390625 183.125 C 171.21875 190.046875 164.019531 196.9375 156.875 203.882812 C 151.078125 209.519531 145.753906 215.601562 140.425781 221.675781 C 135.65625 227.105469 131.148438 232.730469 127.332031 238.878906 C 125.511719 241.808594 123.601562 244.675781 121.617188 247.496094 C 117.738281 253.023438 112.675781 257.296875 107.339844 261.273438 C 101.355469 265.742188 95.171875 269.921875 88.910156 274.003906 C 83.6875 277.40625 78.933594 281.449219 74.355469 285.679688 C 65.835938 293.535156 58.101562 302.113281 50.863281 311.148438 C 49.8125 312.457031 49.105469 313.957031 48.335938 315.417969 C 47.792969 316.453125 47.097656 316.8125 46.292969 316.425781 C 45.496094 316.042969 45.265625 315.121094 45.722656 314.105469 C 46.777344 311.757812 48.21875 309.660156 49.855469 307.691406 C 58.527344 297.265625 67.640625 287.277344 78.058594 278.527344 C 83.925781 273.601562 90.457031 269.652344 96.707031 265.292969 C 101.289062 262.097656 105.828125 258.851562 110.183594 255.335938 C 114.925781 251.511719 118.882812 247 121.96875 241.828125 C 129.167969 229.746094 138.382812 219.304688 147.839844 209.023438 C 153.035156 203.375 158.660156 198.171875 164.171875 192.847656 C 169.523438 187.679688 174.992188 182.625 180.035156 177.144531 C 181.777344 175.25 183.15625 173.101562 184.222656 170.769531 C 184.6875 169.75 185.398438 168.625 184.492188 167.542969 C 183.59375 166.460938 182.289062 166.640625 181.097656 166.902344 C 176.996094 167.800781 173.140625 169.339844 169.414062 171.285156 C 159.984375 176.210938 151.300781 182.246094 142.835938 188.648438 C 139.121094 191.457031 135.035156 193.734375 131.117188 196.25 C 128.726562 197.777344 126.058594 198.300781 123.242188 198.109375 C 122.636719 198.070312 122.027344 198.054688 121.425781 198.042969 C 120.789062 198.027344 120.222656 197.824219 119.777344 197.378906 C 116.207031 193.769531 113.386719 189.730469 112.71875 184.535156 C 112.335938 181.558594 112.71875 178.601562 113.125 175.65625 C 113.476562 173.09375 113.863281 170.539062 114.039062 167.957031 C 114.167969 166.035156 114.875 164.304688 115.832031 162.65625 C 118.453125 158.128906 121.0625 153.589844 123.675781 149.058594 C 123.804688 148.839844 123.941406 148.617188 124.039062 148.382812 C 127.160156 140.988281 132.589844 135.386719 138.210938 129.898438 C 144.128906 124.121094 150.257812 118.558594 155.726562 112.332031 C 159.039062 108.5625 160.933594 104.125 162.253906 99.375 C 162.285156 99.265625 162.257812 99.132812 162.257812 98.902344 C 160.617188 99.878906 158.972656 100.691406 157.585938 101.863281 C 148.300781 109.726562 138.179688 116.394531 127.835938 122.75 C 120.039062 127.539062 113.894531 133.910156 109.023438 141.652344 C 106.050781 146.371094 102.46875 150.695312 99.304688 155.296875 C 97.5 157.917969 95.1875 160.097656 92.835938 162.210938 C 88.125 166.445312 84.851562 171.578125 82.691406 177.527344 C 79.894531 185.238281 77.777344 193.152344 75.488281 201.015625 C 72.644531 210.78125 69.484375 220.445312 66.066406 230.023438 C 62.710938 239.445312 56.941406 247.132812 48.957031 253.054688 C 39.777344 259.863281 31.398438 267.578125 22.945312 275.234375 C 17.21875 280.425781 11.347656 285.453125 5.539062 290.554688 C 5.277344 290.785156 4.996094 291.007812 4.699219 291.179688 C 3.972656 291.605469 3.285156 291.535156 2.722656 290.882812 C 2.234375 290.316406 2.339844 289.507812 2.96875 288.910156 C 3.339844 288.5625 3.761719 288.261719 4.144531 287.925781 C 13.109375 279.9375 22.289062 272.191406 31.015625 263.933594 C 35.5 259.6875 40.339844 255.859375 45.324219 252.238281 C 54.523438 245.566406 60.808594 236.945312 64.417969 226.125 C 68.710938 213.238281 72.691406 200.257812 76.417969 187.203125 C 77.648438 182.910156 79.09375 178.691406 80.757812 174.542969 C 82.644531 169.832031 85.136719 165.515625 88.914062 162.066406 C 93.832031 157.589844 97.941406 152.457031 101.675781 146.964844 C 104.21875 143.21875 106.964844 139.609375 109.503906 135.847656 C 113.695312 129.625 119.257812 124.828125 125.515625 120.792969 C 131.445312 116.972656 137.441406 113.261719 143.277344 109.296875 C 144.492188 108.472656 145.78125 107.6875 146.785156 106.640625 C 148.863281 104.476562 151.238281 102.644531 153.363281 100.539062 C 155.820312 98.105469 158.515625 95.953125 161.75 94.585938 C 162.667969 94.199219 163.574219 93.933594 164.613281 94.148438 C 165.917969 94.414062 166.484375 95.054688 166.160156 96.355469 C 165.386719 99.414062 164.46875 102.433594 163.324219 105.378906 C 161.851562 109.183594 159.570312 112.453125 156.84375 115.46875 C 153.691406 118.957031 150.347656 122.246094 146.929688 125.464844 C 146.46875 125.898438 145.972656 126.296875 145.488281 126.710938 C 145.542969 126.804688 145.605469 126.886719 145.667969 126.972656 Z M 115.558594 181.449219 C 116.160156 181.296875 116.523438 180.976562 116.90625 180.703125 C 119.480469 178.855469 121.882812 176.804688 124.074219 174.515625 C 128.027344 170.386719 132.148438 166.429688 136.441406 162.644531 C 138.964844 160.417969 141.585938 158.347656 144.738281 157.0625 C 151.054688 154.488281 157.40625 152.015625 163.835938 149.742188 C 168.429688 148.117188 173.175781 146.886719 177.433594 144.421875 C 180.957031 142.386719 184.265625 140.128906 185.277344 135.765625 C 185.464844 134.964844 185.261719 134.914062 184.601562 135.023438 C 182.335938 135.410156 180.066406 135.75 177.828125 136.261719 C 172.234375 137.554688 166.785156 139.351562 161.316406 141.082031 C 157.375 142.328125 153.25 142.996094 149.496094 144.816406 C 144.832031 147.070312 140.34375 149.59375 136.457031 153.082031 C 135.269531 154.144531 134.015625 155.136719 132.742188 156.097656 C 128.566406 159.273438 124.046875 161.914062 119.386719 164.296875 C 117.796875 165.109375 117.121094 166.269531 117 167.953125 C 116.820312 170.4375 116.539062 172.910156 116.128906 175.371094 C 115.796875 177.359375 115.632812 179.359375 115.558594 181.449219 Z M 120.601562 160.292969 C 121 160.105469 121.171875 160.039062 121.335938 159.945312 C 126.140625 157.269531 130.722656 154.269531 134.871094 150.625 C 138.929688 147.058594 143.191406 143.746094 147.910156 141.089844 C 153.773438 137.785156 159.753906 134.695312 165.898438 131.949219 C 170.972656 129.683594 175.6875 126.867188 179.996094 123.363281 C 182.121094 121.636719 183.890625 119.589844 185.371094 117.289062 C 186.046875 116.234375 186.546875 115.105469 186.90625 113.902344 C 187.039062 113.445312 186.9375 113.3125 186.464844 113.421875 C 185.316406 113.695312 184.148438 113.890625 183.019531 114.226562 C 179.324219 115.335938 175.722656 116.636719 172.300781 118.492188 C 164.8125 122.554688 156.859375 125.621094 149.074219 129.046875 C 145.539062 130.601562 142.078125 132.300781 138.664062 134.09375 C 138.273438 134.296875 137.816406 134.457031 137.515625 134.757812 C 134.226562 138.105469 130.851562 141.386719 128.726562 145.675781 C 127.011719 149.136719 125.109375 152.492188 123.164062 155.828125 C 122.339844 157.230469 121.542969 158.648438 120.601562 160.292969 Z M 131.476562 171.371094 C 131.605469 171.371094 131.726562 171.390625 131.835938 171.367188 C 135.738281 170.558594 139.652344 169.773438 143.359375 168.265625 C 145.664062 167.328125 148.039062 167.082031 150.488281 167.15625 C 152.242188 167.210938 154 167.269531 155.753906 167.230469 C 159.546875 167.140625 163.175781 166.414062 166.304688 164.089844 C 166.882812 163.664062 167.886719 163.257812 167.808594 162.644531 C 167.722656 162.015625 166.660156 161.890625 165.980469 161.652344 C 160.988281 159.90625 155.789062 159.398438 150.550781 159.117188 C 147.574219 158.960938 144.945312 159.835938 142.566406 161.515625 C 138.5625 164.347656 135.085938 167.789062 131.546875 171.160156 C 131.503906 171.191406 131.503906 171.273438 131.476562 171.371094 Z M 131.476562 171.371094 " fill-opacity="1" fill-rule="nonzero"/></g><path fill="#9a5c6b" d="M 237.734375 87.113281 C 239.773438 86.230469 241.835938 85.398438 243.851562 84.460938 C 249.300781 81.929688 254.824219 79.601562 260.761719 78.492188 C 266.25 77.46875 271.742188 76.484375 277.214844 75.378906 C 279.964844 74.824219 282.722656 74.292969 285.476562 73.75 C 285.851562 73.679688 286.230469 73.601562 286.609375 73.578125 C 287.496094 73.523438 288.210938 74.023438 288.289062 74.800781 C 288.378906 75.660156 287.929688 76.222656 287.105469 76.398438 C 285.582031 76.726562 284.035156 76.984375 282.511719 77.304688 C 274.957031 78.882812 267.347656 80.195312 259.785156 81.730469 C 255.625 82.574219 251.667969 84.121094 247.800781 85.902344 C 240.414062 89.292969 232.789062 92.148438 225.574219 95.925781 C 218.105469 99.839844 211.300781 104.726562 204.851562 110.132812 C 203.96875 110.871094 203.167969 111.699219 202.449219 112.601562 C 202.125 113.003906 202.113281 113.277344 202.59375 113.589844 C 204.28125 114.683594 206.054688 115.472656 208.117188 115.488281 C 210.175781 115.507812 212.1875 115.207031 214.1875 114.746094 C 217.984375 113.867188 221.441406 112.078125 225.0625 110.71875 C 231.207031 108.40625 237.351562 106.0625 243.675781 104.308594 C 247.445312 103.261719 251.277344 102.410156 255.058594 101.378906 C 257.539062 100.699219 260.121094 100.722656 262.675781 100.761719 C 267.894531 100.835938 273.078125 100.5 278.191406 99.382812 C 281.472656 98.667969 284.667969 99.253906 287.855469 99.980469 C 289.6875 100.398438 291.550781 100.675781 293.304688 101.410156 C 294.941406 102.097656 296.4375 103.015625 297.738281 104.203125 C 299.792969 106.082031 300.726562 108.367188 299.980469 111.171875 C 299.703125 112.21875 299.394531 113.253906 298.953125 114.25 C 295.976562 120.992188 291.160156 125.988281 284.683594 129.449219 C 280.339844 131.773438 275.707031 132.945312 270.800781 132.832031 C 267.574219 132.761719 264.4375 131.859375 261.273438 131.273438 C 253.589844 129.851562 245.976562 128.058594 238.214844 127.0625 C 234.070312 126.535156 229.882812 126.082031 225.742188 127.144531 C 222.988281 127.851562 220.492188 129.085938 218.410156 131.089844 C 216.945312 132.5 216.003906 134.191406 215.480469 136.152344 C 215.199219 137.199219 215.472656 138.023438 216.179688 138.777344 C 216.992188 139.636719 218 140.164062 219.089844 140.566406 C 227.726562 143.753906 236.351562 146.980469 245.125 149.796875 C 256.078125 153.308594 266.980469 156.980469 277.867188 160.683594 C 283.246094 162.515625 288.394531 164.914062 293.523438 167.347656 C 303.183594 171.929688 313.386719 174.722656 323.828125 176.832031 C 332.34375 178.554688 340.992188 179.472656 349.492188 181.21875 C 355.707031 182.492188 361.875 184 368.082031 185.304688 C 372.640625 186.261719 377.238281 187.046875 381.890625 187.417969 C 382.019531 187.429688 382.148438 187.4375 382.273438 187.449219 C 383.210938 187.578125 383.777344 188.117188 383.773438 188.886719 C 383.773438 189.667969 383.125 190.355469 382.1875 190.355469 C 381.140625 190.359375 380.085938 190.238281 379.042969 190.109375 C 371.777344 189.214844 364.636719 187.6875 357.535156 185.964844 C 349.617188 184.042969 341.574219 182.859375 333.542969 181.554688 C 320.84375 179.496094 308.25 176.945312 296.355469 171.796875 C 289.835938 168.976562 283.5 165.699219 276.769531 163.390625 C 267.96875 160.367188 259.136719 157.441406 250.285156 154.574219 C 239.582031 151.109375 228.945312 147.457031 218.433594 143.449219 C 216.996094 142.898438 215.617188 142.253906 214.472656 141.1875 C 212.636719 139.488281 211.953125 137.480469 212.730469 135.042969 C 213 134.191406 213.304688 133.359375 213.726562 132.5625 C 213.882812 132.257812 214.292969 131.933594 213.867188 131.550781 C 213.425781 131.15625 213.167969 131.664062 212.894531 131.832031 C 210.488281 133.265625 207.949219 134.363281 205.179688 134.816406 C 199.832031 135.691406 196.4375 132.035156 197.621094 126.734375 C 198.363281 123.394531 200.066406 120.515625 201.984375 117.757812 C 202.457031 117.078125 202.363281 116.847656 201.683594 116.445312 C 198.523438 114.5625 198.273438 112.859375 200.757812 110.09375 C 203.425781 107.125 206.6875 104.859375 209.851562 102.480469 C 213.632812 99.636719 217.667969 97.1875 221.648438 94.644531 C 223.941406 93.179688 225.972656 91.28125 228.242188 89.734375 C 234.144531 85.707031 240.027344 81.640625 245.984375 77.695312 C 248.785156 75.839844 252.074219 75.132812 255.265625 74.234375 C 260.453125 72.773438 265.796875 72.335938 271.132812 71.78125 C 280.335938 70.824219 289.5625 70.007812 298.664062 68.21875 C 302.164062 67.53125 305.691406 66.886719 309.300781 66.984375 C 311.941406 67.058594 314.164062 67.96875 316.277344 69.65625 C 321.210938 73.601562 324.421875 78.816406 327.722656 84.035156 C 333.898438 93.800781 340.097656 103.554688 346.90625 112.902344 C 356.011719 125.390625 368.035156 133.726562 382.847656 138.058594 C 383.550781 138.261719 384.265625 138.457031 384.941406 138.734375 C 385.863281 139.109375 386.222656 139.855469 385.929688 140.628906 C 385.636719 141.410156 384.90625 141.71875 383.945312 141.457031 C 367.964844 137.066406 354.785156 128.503906 344.890625 115.082031 C 340.382812 108.964844 336.273438 102.574219 332.085938 96.234375 C 328.410156 90.667969 324.921875 84.984375 321.300781 79.378906 C 319.167969 76.085938 316.308594 73.503906 313.304688 71.054688 C 312.316406 70.246094 311.105469 70.082031 309.890625 69.988281 C 306.734375 69.742188 303.644531 70.324219 300.574219 70.886719 C 292.941406 72.277344 285.257812 73.234375 277.542969 74.09375 C 271.992188 74.710938 266.398438 74.90625 260.898438 75.957031 C 256.878906 76.726562 252.9375 77.761719 249.140625 79.296875 C 247.261719 80.054688 245.722656 81.394531 244.054688 82.511719 C 241.886719 83.964844 239.734375 85.445312 237.574219 86.917969 C 237.632812 86.976562 237.683594 87.046875 237.734375 87.113281 Z M 287.714844 124.007812 C 283.402344 122.074219 279.859375 119.347656 276.730469 116.054688 C 274.820312 114.042969 272.949219 111.992188 271.050781 109.96875 C 270.746094 109.644531 270.414062 109.375 269.898438 109.390625 C 266.824219 109.476562 263.875 108.8125 261.03125 107.714844 C 260.105469 107.359375 259.4375 107.429688 258.667969 108.015625 C 256.710938 109.507812 254.640625 110.84375 252.257812 111.558594 C 251.597656 111.753906 251.417969 112 251.511719 112.675781 C 252.109375 117.074219 252.605469 121.480469 252.710938 125.925781 C 252.726562 126.507812 253.007812 126.667969 253.515625 126.765625 C 257.054688 127.441406 260.585938 128.132812 264.117188 128.84375 C 268.007812 129.628906 271.871094 130.257812 275.878906 129.476562 C 280.273438 128.621094 284.121094 126.730469 287.714844 124.007812 Z M 249.367188 109.335938 C 252.4375 108.746094 254.953125 107.214844 257.332031 105.417969 C 258.691406 104.386719 260.082031 104.191406 261.71875 104.851562 C 264.429688 105.949219 267.261719 106.554688 270.210938 106.441406 C 271.050781 106.40625 271.769531 106.703125 272.398438 107.25 C 273.453125 108.179688 274.414062 109.199219 275.339844 110.257812 C 277.488281 112.703125 279.648438 115.152344 282.21875 117.175781 C 284.398438 118.894531 286.667969 120.460938 289.304688 121.472656 C 290.136719 121.796875 290.472656 121.691406 291.011719 121.152344 C 293.605469 118.539062 295.1875 115.300781 296.675781 112.015625 C 296.960938 111.386719 297.089844 110.671875 297.1875 109.980469 C 297.382812 108.589844 297.007812 107.382812 295.914062 106.429688 C 293.753906 104.546875 291.203125 103.613281 288.421875 103.074219 C 284.941406 102.398438 281.5 101.507812 277.921875 102.410156 C 276.933594 102.660156 275.921875 102.824219 274.914062 102.972656 C 270.160156 103.679688 265.378906 103.8125 260.585938 103.71875 C 257.535156 103.65625 254.648438 104.4375 251.777344 105.316406 C 251.632812 105.359375 251.445312 105.441406 251.378906 105.554688 C 250.699219 106.804688 250.042969 108.058594 249.367188 109.335938 Z M 247.527344 106.472656 C 247.308594 106.488281 247.15625 106.480469 247.007812 106.507812 C 242.722656 107.304688 238.71875 109.003906 234.609375 110.363281 C 234.402344 110.429688 234.207031 110.558594 234.042969 110.707031 C 231.78125 112.734375 229.71875 114.960938 227.609375 117.140625 C 227.421875 117.332031 227.171875 117.5 227.3125 117.871094 C 227.957031 119.570312 228.316406 121.359375 229.035156 123.039062 C 229.175781 123.375 229.3125 123.625 229.773438 123.617188 C 234.195312 123.546875 238.570312 123.96875 242.910156 124.8125 C 243.484375 124.925781 243.738281 124.839844 243.613281 124.15625 C 243.261719 122.242188 243.027344 120.304688 242.621094 118.402344 C 242.328125 117.039062 242.519531 115.859375 243.226562 114.65625 C 244.761719 112.011719 246.148438 109.285156 247.527344 106.472656 Z M 200.363281 128.261719 C 200.347656 130.769531 201.15625 131.761719 203.109375 131.960938 C 203.613281 132.011719 204.132812 132.011719 204.628906 131.929688 C 207.242188 131.488281 209.621094 130.449219 211.847656 129.035156 C 212.226562 128.800781 212.289062 128.554688 212.09375 128.175781 C 211.988281 127.980469 211.933594 127.761719 211.863281 127.550781 C 210.9375 124.6875 210.042969 121.824219 210.910156 118.761719 C 211.074219 118.191406 210.636719 118.320312 210.351562 118.347656 C 208.917969 118.484375 207.476562 118.570312 206.070312 118.222656 C 205.496094 118.078125 205.195312 118.253906 204.875 118.6875 C 203.792969 120.152344 202.839844 121.695312 201.996094 123.308594 C 201.117188 124.976562 200.425781 126.726562 200.363281 128.261719 Z M 248.230469 111.609375 C 247.320312 113.273438 246.402344 114.929688 245.5 116.59375 C 245.324219 116.921875 245.414062 117.28125 245.472656 117.628906 C 245.792969 119.511719 246.128906 121.394531 246.441406 123.277344 C 246.816406 125.519531 246.816406 125.488281 249.082031 125.890625 C 249.714844 126 249.753906 125.804688 249.738281 125.269531 C 249.59375 120.707031 249.007812 116.191406 248.230469 111.609375 Z M 221.199219 120.402344 C 223.035156 117.742188 225.125 115.480469 227.203125 113.175781 C 224.3125 114.039062 221.617188 115.320312 218.800781 116.46875 C 219.730469 117.703125 220.429688 118.953125 221.199219 120.402344 Z M 218.871094 126.859375 C 219.785156 126.683594 219.949219 126.179688 219.785156 125.386719 C 219.214844 122.652344 217.996094 120.242188 216.316406 118.035156 C 215.800781 117.355469 215.277344 117.371094 214.597656 117.785156 C 216.703125 120.507812 218.109375 123.5 218.871094 126.859375 Z M 224.957031 120.230469 C 224.101562 121.308594 223.359375 122.332031 222.515625 123.269531 C 222.121094 123.707031 222.5 124.347656 222.714844 124.792969 C 222.886719 125.160156 223.3125 124.765625 223.621094 124.6875 C 224.296875 124.515625 224.957031 124.261719 225.640625 124.136719 C 226.160156 124.039062 226.242188 123.871094 226.058594 123.390625 C 225.6875 122.414062 225.367188 121.414062 224.957031 120.230469 Z M 213.648438 121.792969 C 213.828125 124.449219 214.550781 126.953125 215.96875 129.234375 C 216.085938 126.488281 215.046875 124.089844 213.648438 121.792969 Z M 213.648438 121.792969 " fill-opacity="1" fill-rule="nonzero"/></svg>