<svg xmlns="http://www.w3.org/2000/svg" xmlns:xlink="http://www.w3.org/1999/xlink" width="512" zoomAndPan="magnify" viewBox="0 0 384 383.999986" height="512" preserveAspectRatio="xMidYMid meet" version="1.0"><defs><filter x="0%" y="0%" width="100%" height="100%" id="302a5818e0"><feColorMatrix values="0 0 0 0 1 0 0 0 0 1 0 0 0 0 1 0 0 0 1 0" color-interpolation-filters="sRGB"/></filter><mask id="7a73533f4e"><g filter="url(#302a5818e0)"><rect x="-38.4" width="460.8" fill="#000000" y="-38.399999" height="460.799983" fill-opacity="0.6"/></g></mask><clipPath id="6868dbbd77"><path d="M 142 0 L 293.339844 0 L 293.339844 158 L 142 158 Z M 142 0 " clip-rule="nonzero"/></clipPath><clipPath id="6ba0e2b178"><rect x="0" width="294" y="0" height="384"/></clipPath></defs><g mask="url(#7a73533f4e)"><g transform="matrix(1, 0, 0, 1, 45, 0)"><g clip-path="url(#6ba0e2b178)"><path fill="#ff9797" d="M 213.671875 283.558594 C 213.601562 284.671875 213.5 286.195312 213.410156 287.707031 C 213.398438 288.046875 213.410156 288.382812 213.457031 288.722656 C 213.457031 288.96875 213.59375 289.207031 213.621094 289.449219 C 213.828125 291.277344 213.703125 293.148438 214.453125 294.894531 C 214.515625 295.136719 214.515625 295.378906 214.453125 295.625 C 214.046875 298.996094 214.453125 302.367188 214.335938 305.730469 C 214.375 306.324219 214.335938 306.914062 214.21875 307.5 C 213.855469 308.65625 213.855469 309.8125 214.21875 310.972656 C 214.296875 311.648438 214.203125 312.300781 213.9375 312.929688 C 213.6875 313.824219 213.382812 314.699219 213.019531 315.550781 C 212.617188 316.335938 212.546875 317.148438 212.808594 317.992188 C 212.953125 318.445312 212.988281 318.910156 212.910156 319.382812 C 212.832031 319.855469 212.648438 320.285156 212.363281 320.667969 C 211.175781 322.265625 211.136719 324.097656 210.972656 325.925781 C 210.960938 326.097656 210.960938 326.265625 210.972656 326.4375 C 211.019531 326.867188 210.960938 327.28125 210.796875 327.679688 C 210.632812 328.078125 210.382812 328.414062 210.046875 328.6875 C 209.613281 328.992188 209.300781 329.390625 209.109375 329.882812 C 208.914062 330.375 208.875 330.878906 208.980469 331.394531 C 209.152344 332.15625 209.117188 332.910156 208.882812 333.652344 C 208.648438 334.394531 208.246094 335.03125 207.671875 335.558594 C 207.171875 336.042969 206.898438 336.632812 206.855469 337.328125 C 206.757812 337.996094 206.597656 338.648438 206.378906 339.289062 C 206.183594 340.015625 206.003906 340.742188 205.789062 341.472656 C 205.652344 341.953125 205.488281 342.425781 205.296875 342.890625 C 204.6875 344.101562 204.164062 345.34375 203.714844 346.621094 C 203.460938 347.71875 202.902344 348.628906 202.03125 349.351562 C 201.269531 349.957031 200.8125 350.738281 200.660156 351.703125 C 200.5 352.71875 200.128906 353.65625 199.554688 354.511719 C 199.230469 355.011719 198.988281 355.546875 198.824219 356.121094 C 198.441406 357.25 197.875 358.285156 197.136719 359.222656 C 196.703125 359.847656 196.304688 360.496094 195.949219 361.167969 C 195.773438 361.457031 195.671875 361.835938 195.421875 362.027344 C 193.785156 363.25 193.5 365.316406 192.378906 366.839844 C 190.527344 369.335938 189.390625 372.34375 186.964844 374.433594 C 186.636719 374.710938 186.386719 375.050781 186.214844 375.449219 C 186.046875 375.84375 185.972656 376.257812 185.996094 376.691406 C 186.027344 377.28125 186.027344 377.875 185.996094 378.464844 C 185.992188 378.765625 185.9375 379.058594 185.828125 379.339844 C 185.722656 379.617188 185.570312 379.871094 185.375 380.101562 C 185.175781 380.328125 184.949219 380.511719 184.683594 380.660156 C 184.421875 380.804688 184.144531 380.902344 183.847656 380.949219 C 183.679688 380.988281 183.511719 381.011719 183.34375 381.015625 C 182.15625 381.015625 181.207031 381.40625 180.726562 382.632812 C 180.496094 383.222656 179.90625 383.394531 179.269531 383.519531 C 176.925781 383.992188 175.175781 382.792969 173.507812 381.464844 C 172.707031 380.839844 172.050781 380.0625 170.988281 379.855469 C 170.730469 379.800781 170.507812 379.679688 170.324219 379.492188 C 168.613281 377.980469 166.707031 376.765625 164.613281 375.851562 C 164.328125 375.675781 164.0625 375.46875 163.816406 375.242188 C 162.964844 374.53125 162.011719 373.996094 160.960938 373.640625 C 160.390625 373.453125 159.871094 373.175781 159.394531 372.808594 C 157.820312 371.683594 156.121094 370.796875 154.296875 370.152344 C 154.042969 370.089844 153.832031 369.957031 153.660156 369.757812 C 153.144531 368.832031 152.203125 368.71875 151.351562 368.390625 C 149.660156 367.785156 148.171875 366.859375 146.886719 365.609375 C 145.554688 364.15625 144.003906 362.992188 142.238281 362.121094 C 141.167969 361.648438 140.308594 360.730469 139.074219 360.5625 C 138.902344 360.53125 138.753906 360.453125 138.625 360.335938 C 137.34375 359.128906 136.0625 357.914062 134.792969 356.695312 C 134.386719 356.277344 133.964844 355.882812 133.515625 355.507812 C 132.839844 354.996094 132.140625 354.523438 131.410156 354.089844 C 130.429688 353.523438 129.703125 352.726562 129.226562 351.703125 C 128.984375 351.152344 128.640625 350.675781 128.199219 350.273438 C 127.753906 349.867188 127.246094 349.574219 126.675781 349.386719 C 126.105469 349.195312 125.609375 348.886719 125.1875 348.460938 C 124.765625 348.03125 124.460938 347.53125 124.277344 346.960938 C 123.886719 346.199219 123.332031 345.582031 122.609375 345.121094 C 121.640625 344.421875 120.824219 343.574219 120.164062 342.578125 C 119.902344 342.132812 119.554688 341.773438 119.121094 341.5 C 118.207031 340.953125 117.597656 340.167969 117.292969 339.148438 C 116.835938 337.832031 116.066406 336.738281 114.980469 335.863281 C 114.070312 335.136719 113.523438 334.023438 112.4375 333.402344 C 112.078125 333.152344 111.8125 332.824219 111.640625 332.417969 C 111.472656 332.007812 111.429688 331.589844 111.507812 331.15625 C 111.554688 330.558594 111.480469 329.980469 111.273438 329.417969 C 111.070312 328.859375 110.753906 328.367188 110.332031 327.945312 C 109.605469 327.128906 109.253906 326.066406 108.234375 325.460938 C 107.832031 325.121094 107.613281 324.683594 107.578125 324.15625 C 107.558594 323.382812 107.328125 322.675781 106.886719 322.039062 C 106.59375 321.613281 106.433594 321.140625 106.40625 320.625 C 106.273438 319.351562 105.871094 318.164062 105.199219 317.074219 C 104.390625 315.84375 103.964844 314.496094 103.921875 313.023438 C 103.96875 311.613281 103.554688 310.351562 102.683594 309.238281 C 102.253906 308.589844 102.035156 307.875 102.035156 307.097656 C 102.027344 306.074219 101.859375 305.082031 101.53125 304.113281 C 101.503906 304.03125 101.488281 303.949219 101.480469 303.863281 C 101.480469 303.609375 101.335938 303.3125 101.429688 303.136719 C 102.160156 301.585938 101.023438 299.96875 101.640625 298.425781 C 101.792969 298.023438 101.863281 297.605469 101.847656 297.175781 C 101.765625 294.625 102.945312 292.464844 103.90625 290.234375 C 104.085938 289.746094 104.371094 289.324219 104.757812 288.976562 C 105.140625 288.625 105.589844 288.382812 106.09375 288.253906 C 106.75 288.042969 107.300781 287.671875 107.738281 287.140625 C 108.875 285.992188 114.230469 283.601562 115.820312 283.792969 C 118.015625 283.996094 120.183594 283.828125 122.324219 283.296875 C 122.742188 283.160156 123.160156 283.140625 123.585938 283.238281 C 125.183594 283.914062 126.5 282.84375 127.957031 282.683594 C 128.03125 282.570312 128.058594 282.449219 128.039062 282.3125 C 127.59375 281.921875 127.128906 281.585938 126.675781 281.171875 C 126.613281 281.113281 126.570312 281.042969 126.546875 280.960938 C 126.519531 280.882812 126.515625 280.800781 126.527344 280.714844 C 126.542969 280.632812 126.578125 280.558594 126.628906 280.492188 C 126.679688 280.425781 126.746094 280.375 126.820312 280.339844 C 127.285156 280.117188 127.769531 279.972656 128.277344 279.894531 C 130.140625 279.746094 132.003906 279.71875 133.867188 279.808594 C 135.382812 279.980469 136.859375 280.324219 138.296875 280.835938 C 139.011719 281.121094 139.632812 281.542969 140.167969 282.09375 C 140.824219 282.832031 141.644531 283.191406 142.632812 283.171875 C 143.277344 283.195312 143.773438 283.476562 144.125 284.015625 C 144.46875 284.492188 144.875 284.910156 145.339844 285.269531 C 146.230469 285.785156 146.976562 286.457031 147.585938 287.285156 C 147.875 287.714844 148.253906 288.046875 148.714844 288.285156 C 149.621094 288.800781 150.320312 289.515625 150.820312 290.433594 C 151.425781 291.339844 151.980469 292.296875 152.65625 293.15625 C 153.949219 294.628906 154.921875 296.292969 155.570312 298.140625 C 155.707031 298.542969 155.925781 298.894531 156.226562 299.199219 C 156.75 299.679688 157.027344 300.277344 157.058594 300.988281 C 157.042969 301.25 157.125 301.480469 157.304688 301.671875 C 158.273438 302.300781 158.878906 303.179688 159.113281 304.308594 C 159.144531 304.394531 159.203125 304.453125 159.285156 304.484375 C 161.011719 305.082031 162.054688 306.667969 163.585938 307.511719 C 164.214844 307.933594 164.820312 308.386719 165.398438 308.875 C 165.589844 309.011719 165.917969 309.230469 166.019531 308.875 C 166.332031 307.820312 167.199219 307.023438 167.335938 305.882812 C 167.382812 305.363281 167.550781 304.890625 167.847656 304.460938 C 168.429688 303.734375 168.394531 302.890625 168.574219 302.082031 C 169.011719 300.386719 169.304688 298.621094 170.507812 297.21875 C 171.015625 296.597656 171.242188 295.890625 171.183594 295.089844 C 171.140625 294.101562 171.472656 293.261719 172.175781 292.566406 C 172.523438 292.199219 172.800781 291.765625 173.128906 291.378906 C 173.800781 290.699219 174.246094 289.894531 174.460938 288.960938 C 174.550781 288.449219 174.75 287.988281 175.058594 287.570312 C 175.371094 287.15625 175.757812 286.835938 176.226562 286.609375 C 176.890625 286.347656 177.363281 285.886719 177.644531 285.234375 C 178.03125 284.25 178.683594 283.496094 179.597656 282.96875 C 180.28125 282.554688 180.726562 281.960938 180.933594 281.191406 C 181.125 280.613281 181.46875 280.148438 181.964844 279.792969 C 182.964844 279.011719 184.011719 278.296875 185.097656 277.644531 C 187.417969 276.269531 189.734375 274.886719 192.121094 273.640625 C 193.96875 272.609375 195.898438 271.753906 197.898438 271.070312 C 199.445312 270.636719 201.019531 270.464844 202.621094 270.5625 C 204.097656 270.632812 205.453125 271.070312 206.695312 271.871094 C 207.195312 272.183594 207.683594 272.519531 208.152344 272.847656 C 208.773438 273.328125 209.476562 273.574219 210.265625 273.574219 C 211.242188 273.53125 211.78125 274.152344 212.253906 274.921875 C 213.082031 276.277344 213.097656 277.835938 213.359375 279.292969 C 213.546875 280.707031 213.652344 282.128906 213.671875 283.558594 Z M 174.332031 317.050781 C 174.394531 317.453125 174.503906 317.84375 174.660156 318.222656 C 175.015625 318.992188 175.472656 319.699219 176.027344 320.34375 C 176.960938 321.25 177.585938 322.335938 177.910156 323.597656 C 178.089844 324.371094 178.511719 324.988281 179.167969 325.4375 C 179.355469 325.59375 179.566406 325.664062 179.808594 325.644531 C 180 325.578125 180.246094 325.257812 180.21875 325.089844 C 179.882812 323.238281 180.945312 321.449219 180.488281 319.605469 C 180.453125 319.175781 180.550781 318.769531 180.773438 318.398438 C 181.125 317.792969 181.195312 317.152344 180.984375 316.484375 C 180.820312 315.949219 180.773438 315.40625 180.839844 314.851562 C 180.90625 314.296875 181.082031 313.78125 181.367188 313.300781 C 181.847656 312.472656 182.03125 311.582031 181.914062 310.628906 C 181.855469 310.242188 181.898438 309.867188 182.035156 309.5 C 182.171875 309.132812 182.390625 308.824219 182.6875 308.570312 C 183.167969 308.152344 183.382812 307.628906 183.328125 306.996094 C 183.328125 306.492188 183.546875 305.976562 183.488281 305.488281 C 183.386719 304.167969 183.703125 302.953125 184.4375 301.847656 C 184.636719 301.378906 184.78125 300.894531 184.867188 300.390625 C 184.984375 299.820312 185.160156 299.261719 185.390625 298.726562 C 185.707031 298.128906 185.925781 297.496094 186.046875 296.832031 C 186.292969 295.59375 186.542969 294.335938 187.757812 293.5625 C 188.011719 293.402344 188.136719 293.023438 188.328125 292.746094 C 189.449219 291.09375 189.902344 289.003906 191.613281 287.738281 C 191.8125 287.566406 191.9375 287.347656 191.992188 287.089844 C 192.488281 284.90625 194.28125 283.574219 195.34375 281.765625 C 195.585938 281.40625 195.910156 281.148438 196.320312 280.996094 C 197.527344 280.558594 198.148438 279.539062 198.847656 278.585938 C 198.894531 278.4375 198.867188 278.304688 198.761719 278.191406 C 198.617188 278.09375 198.460938 278.066406 198.292969 278.121094 C 197.667969 278.371094 197.109375 278.730469 196.625 279.195312 C 196.078125 279.867188 195.386719 280.3125 194.550781 280.53125 C 193.828125 280.761719 193.125 281.042969 192.441406 281.375 C 191.5625 281.855469 190.730469 282.4375 189.871094 282.96875 C 189.433594 284.265625 188.121094 284.082031 187.210938 284.585938 C 186.683594 284.886719 186.308594 285.320312 186.089844 285.886719 C 185.820312 286.695312 185.0625 287.003906 184.675781 287.613281 C 184.324219 288.375 184.027344 289.15625 183.789062 289.957031 C 183.605469 290.261719 183.359375 290.503906 183.058594 290.6875 C 181.152344 292.179688 180.144531 294.363281 178.820312 296.269531 C 178.65625 296.464844 178.511719 296.667969 178.390625 296.890625 C 178.289062 297.121094 178.226562 297.367188 178.207031 297.617188 C 178.1875 298.605469 177.800781 299.425781 177.054688 300.070312 C 176.832031 300.261719 176.765625 300.65625 176.640625 300.960938 C 176.050781 302.417969 176.015625 304.089844 174.972656 305.417969 C 174.816406 305.824219 174.839844 306.222656 175.046875 306.609375 C 175.460938 307.40625 175.519531 308.226562 175.21875 309.070312 C 174.902344 310.042969 174.753906 311.035156 174.769531 312.054688 C 174.710938 312.785156 174.273438 313.554688 174.367188 314.242188 C 174.605469 315.191406 174.589844 316.136719 174.324219 317.082031 Z M 200.179688 303.945312 C 200.246094 304.253906 200.246094 304.5625 200.179688 304.871094 C 199.3125 306.675781 199.34375 308.632812 199.140625 310.554688 C 199.136719 310.640625 199.113281 310.722656 199.074219 310.796875 C 198.511719 311.722656 198.621094 312.75 198.5625 313.765625 C 198.582031 314.445312 198.460938 315.097656 198.207031 315.726562 C 197.257812 317.617188 196.582031 319.601562 196.179688 321.683594 C 195.929688 322.925781 195.539062 324.121094 195.007812 325.269531 C 194.589844 326.371094 194.273438 327.5 194.0625 328.65625 C 193.957031 329.320312 193.792969 329.96875 193.566406 330.601562 C 192.910156 331.890625 192.445312 333.246094 192.167969 334.664062 C 192.046875 335.347656 191.753906 335.945312 191.292969 336.460938 C 190.183594 337.640625 189.914062 339.113281 189.550781 340.574219 C 189.324219 341.472656 189.195312 342.394531 188.910156 343.269531 C 188.546875 344.390625 188.179688 345.542969 186.890625 346.03125 C 186.542969 346.253906 186.296875 346.5625 186.164062 346.953125 C 185.945312 347.398438 185.972656 348.023438 185.667969 348.375 C 184.523438 349.65625 185.484375 350.921875 185.59375 352.1875 C 185.59375 352.226562 185.710938 352.277344 185.769531 352.269531 C 185.828125 352.261719 185.972656 352.234375 185.996094 352.175781 C 186.480469 351.101562 186.96875 350.027344 187.453125 348.949219 C 187.714844 348.527344 187.917969 348.078125 188.058594 347.601562 C 188.105469 346.8125 188.410156 346.140625 188.976562 345.585938 C 189.269531 345.269531 189.449219 344.898438 189.515625 344.472656 C 189.65625 343.632812 189.949219 342.851562 190.394531 342.125 C 191.414062 340.394531 192.328125 338.59375 193.308594 336.8125 C 193.496094 336.527344 193.625 336.222656 193.703125 335.894531 C 193.90625 334.023438 195.371094 332.53125 195.300781 330.570312 C 195.300781 330.28125 195.5625 329.953125 195.765625 329.699219 C 196.367188 328.960938 196.742188 328.121094 196.886719 327.179688 C 196.949219 326.746094 197.132812 326.375 197.441406 326.066406 C 198.316406 325.285156 198.300781 324.28125 198.34375 323.261719 C 198.386719 321.277344 198.886719 319.414062 199.84375 317.675781 C 200.1875 317.191406 200.410156 316.65625 200.511719 316.070312 C 200.617188 315.488281 200.589844 314.910156 200.4375 314.335938 C 200.257812 313.800781 200.210938 313.253906 200.285156 312.699219 C 200.363281 312.140625 200.558594 311.628906 200.871094 311.160156 C 201.074219 310.878906 201.175781 310.566406 201.1875 310.222656 C 201.1875 307.824219 201.972656 305.5625 202.359375 303.238281 C 202.660156 301.84375 202.875 300.4375 203.015625 299.015625 C 203 298.414062 203.164062 297.863281 203.511719 297.371094 C 203.914062 296.925781 204.203125 296.414062 204.375 295.839844 C 204.546875 295.265625 204.589844 294.679688 204.5 294.085938 C 204.429688 293.242188 204.40625 292.398438 204.429688 291.554688 C 204.394531 290.957031 204.523438 290.398438 204.8125 289.878906 C 205.324219 289.15625 205.511719 288.355469 205.382812 287.484375 C 205.382812 286.398438 205.105469 285.296875 206.039062 284.382812 C 206.207031 284.214844 206.140625 283.742188 206.082031 283.433594 C 205.980469 283.023438 205.851562 282.621094 205.695312 282.226562 C 205.660156 282.148438 205.605469 282.085938 205.539062 282.035156 C 205.46875 281.984375 205.394531 281.953125 205.308594 281.9375 C 205.226562 281.925781 205.144531 281.929688 205.0625 281.957031 C 204.980469 281.984375 204.910156 282.027344 204.851562 282.085938 C 204.210938 282.640625 203.605469 283.238281 202.933594 283.746094 C 201.652344 284.707031 200.996094 285.894531 202.207031 287.34375 C 202.492188 287.667969 202.683594 288.039062 202.78125 288.457031 C 202.878906 288.878906 202.871094 289.296875 202.761719 289.710938 C 202.453125 291.460938 202.058594 293.191406 201.570312 294.902344 C 201.007812 296.335938 200.742188 297.820312 200.777344 299.359375 C 200.867188 300.921875 199.890625 302.328125 200.171875 303.96875 Z M 130.535156 334.152344 L 130.660156 334.117188 C 130.253906 332.660156 129.882812 331.207031 129.414062 329.75 C 129.269531 329.25 128.984375 328.851562 128.5625 328.546875 C 127.570312 327.988281 127.25 327.003906 126.871094 326.09375 C 126.222656 324.550781 126.070312 322.808594 124.957031 321.449219 C 124.800781 321.230469 124.742188 320.988281 124.78125 320.722656 C 124.867188 319.917969 124.625 319.230469 124.050781 318.660156 C 123.699219 318.082031 123.382812 317.484375 123.105469 316.871094 C 122.484375 315.917969 122.191406 314.878906 122.214844 313.746094 C 122.171875 313.15625 122.070312 312.578125 121.910156 312.011719 C 121.585938 310.703125 121.390625 309.371094 121.320312 308.023438 C 121.363281 306.476562 121.019531 305.019531 120.285156 303.652344 C 119.191406 301.46875 120.453125 299.570312 122.878906 299.460938 C 123.214844 299.460938 123.558594 299.460938 123.890625 299.425781 C 124.777344 299.351562 125.5625 299.59375 126.253906 300.152344 C 127.324219 300.980469 128.394531 301.796875 128.898438 303.128906 C 128.898438 303.203125 129.160156 303.210938 129.296875 303.210938 C 129.4375 303.210938 129.398438 303.085938 129.414062 303.007812 C 129.554688 302.375 129.398438 301.824219 128.949219 301.359375 C 127.726562 299.96875 127.273438 298.085938 126.035156 296.695312 C 125.730469 296.273438 125.5625 295.804688 125.53125 295.289062 C 125.457031 294.554688 125.207031 293.886719 124.777344 293.289062 C 124.347656 292.691406 123.796875 292.238281 123.128906 291.933594 C 122.53125 291.597656 122.230469 291.617188 121.816406 292.136719 C 121.46875 292.507812 121.171875 292.917969 120.917969 293.359375 C 120.207031 294.886719 119.527344 296.4375 118.878906 298.003906 C 118.621094 298.542969 118.472656 299.109375 118.441406 299.707031 C 118.441406 300.539062 118.785156 301.359375 118.792969 302.191406 C 118.738281 303.027344 118.632812 303.859375 118.472656 304.679688 C 118.480469 304.851562 118.519531 305.015625 118.597656 305.167969 C 118.820312 305.898438 119.082031 306.625 119.273438 307.351562 C 119.585938 308.570312 120.25 309.710938 120.191406 310.992188 C 120.140625 312.898438 120.640625 314.648438 121.691406 316.242188 C 122.410156 317.511719 122.820312 318.867188 122.921875 320.320312 C 122.992188 321.871094 123.480469 323.277344 124.378906 324.542969 C 125.414062 325.800781 126.179688 327.207031 126.667969 328.757812 C 127.324219 331.148438 129.125 332.761719 130.164062 334.859375 C 130.226562 334.921875 130.296875 334.945312 130.382812 334.925781 C 130.492188 334.847656 130.632812 334.738281 130.652344 334.621094 C 130.636719 334.464844 130.59375 334.316406 130.53125 334.175781 Z M 135.828125 326.996094 C 135.921875 327.652344 136.144531 328.261719 136.484375 328.824219 C 136.828125 329.390625 137.265625 329.871094 137.800781 330.257812 C 138.183594 330.613281 138.445312 331.039062 138.585938 331.539062 C 139.109375 333.1875 140.019531 334.582031 141.3125 335.726562 C 142.027344 336.28125 142.429688 337.011719 142.515625 337.910156 C 142.5625 338.617188 142.871094 339.183594 143.441406 339.609375 C 144.207031 340.304688 144.722656 341.160156 144.984375 342.164062 C 145.328125 343.128906 145.8125 344.011719 146.441406 344.820312 C 147.460938 346.277344 148.824219 347.414062 149.488281 349.101562 C 149.699219 349.476562 149.984375 349.785156 150.347656 350.019531 C 151.40625 350.886719 152.246094 351.933594 152.859375 353.15625 C 153.320312 353.964844 153.855469 354.71875 154.464844 355.421875 C 154.886719 356.085938 155.46875 356.554688 156.210938 356.820312 C 156.851562 356.09375 156.210938 355.398438 156.210938 354.6875 C 156.128906 352.988281 155.714844 351.375 154.964844 349.84375 C 154.746094 349.285156 154.386719 348.835938 153.886719 348.496094 C 153.019531 348.035156 152.460938 347.332031 152.203125 346.386719 C 152.027344 345.996094 151.792969 345.648438 151.496094 345.335938 C 150.339844 343.792969 149.449219 342.046875 147.773438 340.917969 C 147.242188 340.5625 147.046875 339.730469 146.484375 339.402344 C 145.683594 338.878906 145.125 338.164062 144.816406 337.257812 C 144.371094 335.925781 143.5625 334.875 142.390625 334.101562 C 142.113281 333.898438 141.867188 333.652344 141.664062 333.375 C 140.75 332.386719 139.945312 331.320312 139.242188 330.171875 C 138.15625 328.574219 136.964844 327.0625 135.660156 325.636719 C 135.585938 325.546875 135.402344 325.546875 135.273438 325.511719 C 135.273438 325.585938 135.199219 325.679688 135.222656 325.738281 C 135.398438 326.136719 135.578125 326.515625 135.820312 327.019531 Z M 134.609375 286.398438 L 134.609375 286.363281 C 133.507812 286.363281 132.425781 286.363281 131.308594 286.425781 C 131.070312 286.472656 130.84375 286.558594 130.632812 286.675781 C 130.726562 286.976562 130.855469 287.261719 131.019531 287.535156 C 131.214844 287.808594 131.457031 288.027344 131.746094 288.195312 C 133.421875 289.179688 135.144531 290.066406 136.917969 290.863281 C 140.214844 292.1875 143.320312 293.855469 146.246094 295.871094 C 147.015625 296.394531 147.703125 297.042969 148.730469 296.949219 C 149.136719 296.949219 148.910156 296.386719 147.8125 294.566406 C 147.082031 293.328125 146.355469 292.105469 145.019531 291.355469 C 144.691406 291.105469 144.421875 290.800781 144.210938 290.4375 C 143.484375 289.5 142.996094 288.386719 141.605469 288.253906 C 141.472656 288.253906 141.328125 288.058594 141.230469 287.925781 C 140.367188 286.675781 139.046875 286.472656 137.675781 286.398438 C 136.636719 286.363281 135.613281 286.421875 134.601562 286.421875 Z M 160.183594 319.546875 C 160.117188 319.277344 160.136719 318.820312 159.933594 318.652344 C 158.90625 317.683594 159.097656 316.097656 158.085938 315.128906 C 157.878906 314.925781 157.878906 314.511719 157.792969 314.183594 C 157.632812 313.535156 157.515625 312.871094 157.304688 312.246094 C 156.875 310.964844 156.4375 309.675781 155.914062 308.429688 C 155.609375 307.546875 155.15625 306.75 154.550781 306.042969 C 153.65625 305.183594 152.363281 304.746094 151.636719 303.707031 C 150.398438 303.480469 149.589844 302.582031 148.664062 301.863281 C 148 301.347656 147.332031 301.265625 147.417969 301.542969 C 147.542969 301.949219 147.71875 302.332031 147.941406 302.691406 C 148.101562 302.890625 148.289062 303.054688 148.511719 303.179688 C 149.347656 303.78125 150.019531 304.53125 150.527344 305.429688 C 151.035156 306.433594 151.738281 307.269531 152.640625 307.933594 C 152.929688 308.128906 153.136719 308.390625 153.261719 308.714844 C 153.902344 310.28125 154.734375 311.738281 155.765625 313.082031 C 156.105469 313.753906 156.492188 314.390625 156.933594 314.996094 C 158.109375 316.246094 158.964844 317.679688 159.503906 319.308594 C 159.566406 319.460938 159.648438 319.601562 159.753906 319.730469 C 159.828125 319.78125 159.90625 319.792969 159.992188 319.765625 C 160.035156 319.773438 160.082031 319.679688 160.175781 319.570312 Z M 166.070312 317.671875 C 166.027344 317.511719 165.972656 317.351562 165.929688 317.191406 C 165.820312 316.683594 165.585938 316.238281 165.230469 315.859375 C 164.875 315.476562 164.449219 315.214844 163.949219 315.070312 C 163.5625 314.941406 163.007812 314.539062 162.863281 314.664062 C 162.46875 314.984375 162.863281 315.390625 163.03125 315.785156 C 163.199219 316.175781 163.5625 316.738281 163.535156 317.195312 C 163.460938 318.566406 164.75 319.621094 164.335938 321.035156 C 164.664062 321.898438 164.976562 322.773438 165.320312 323.632812 C 165.363281 323.71875 165.574219 323.757812 165.71875 323.785156 C 165.863281 323.816406 165.859375 323.683594 165.859375 323.625 C 165.945312 323.042969 165.945312 322.460938 165.859375 321.878906 C 165.410156 320.628906 165.441406 319.390625 165.953125 318.164062 C 166.011719 318.003906 166.050781 317.839844 166.070312 317.671875 Z M 145.667969 313.300781 C 145.363281 312.792969 145.027344 312.222656 144.6875 311.664062 C 144.625 311.59375 144.550781 311.5625 144.460938 311.570312 C 144.378906 311.613281 144.328125 311.675781 144.308594 311.765625 C 144.226562 312.152344 144.277344 312.519531 144.460938 312.867188 C 144.644531 313.21875 144.917969 313.46875 145.28125 313.621094 C 145.347656 313.652344 145.414062 313.652344 145.480469 313.621094 C 145.539062 313.578125 145.566406 313.492188 145.667969 313.300781 Z M 147.484375 316.105469 C 147.425781 316.242188 147.285156 316.417969 147.324219 316.511719 C 147.570312 317.144531 148.019531 317.570312 148.664062 317.785156 C 148.722656 317.785156 148.816406 317.785156 148.867188 317.707031 C 148.917969 317.648438 148.9375 317.585938 148.925781 317.511719 C 148.875 317.183594 148.738281 316.894531 148.519531 316.644531 C 148.300781 316.394531 148.035156 316.222656 147.714844 316.125 C 147.640625 316.113281 147.5625 316.109375 147.484375 316.113281 Z M 150.636719 320.640625 L 150.636719 320.445312 L 150.414062 320.496094 C 150.429688 320.5625 150.453125 320.625 150.484375 320.683594 C 150.539062 320.679688 150.589844 320.667969 150.636719 320.648438 Z M 150.636719 320.640625 " fill-opacity="1" fill-rule="nonzero"/><path fill="#ff9797" d="M 132.75 121.207031 C 133.078125 122.589844 133.480469 124.46875 133.976562 126.347656 C 134.082031 126.761719 134.226562 127.164062 134.398438 127.554688 C 134.53125 127.847656 134.753906 128.101562 134.878906 128.394531 C 135.804688 130.578125 136.335938 132.863281 137.910156 134.707031 C 138.089844 134.984375 138.191406 135.285156 138.214844 135.617188 C 138.945312 139.851562 140.679688 143.808594 141.816406 147.933594 C 142.085938 148.640625 142.257812 149.367188 142.324219 150.121094 C 142.304688 151.660156 142.730469 153.066406 143.59375 154.34375 C 143.933594 155.136719 144.0625 155.964844 143.980469 156.824219 C 144.003906 158 143.953125 159.171875 143.824219 160.34375 C 143.636719 161.445312 143.851562 162.460938 144.472656 163.394531 C 144.824219 163.890625 145.039062 164.441406 145.121094 165.042969 C 145.203125 165.648438 145.140625 166.234375 144.933594 166.808594 C 144.082031 169.179688 144.722656 171.425781 145.195312 173.710938 C 145.238281 173.914062 145.347656 174.109375 145.414062 174.3125 C 145.632812 174.816406 145.71875 175.34375 145.667969 175.886719 C 145.613281 176.433594 145.433594 176.933594 145.121094 177.386719 C 144.714844 177.917969 144.488281 178.519531 144.4375 179.1875 C 144.386719 179.855469 144.523438 180.484375 144.847656 181.070312 C 145.328125 181.933594 145.566406 182.859375 145.554688 183.847656 C 145.542969 184.839844 145.289062 185.757812 144.789062 186.613281 C 144.363281 187.386719 144.253906 188.207031 144.460938 189.066406 C 144.589844 189.914062 144.636719 190.765625 144.605469 191.621094 C 144.640625 192.582031 144.691406 193.535156 144.699219 194.496094 C 144.714844 195.132812 144.691406 195.769531 144.632812 196.40625 C 144.339844 198.09375 144.160156 199.789062 144.09375 201.5 C 144.195312 202.933594 143.855469 204.246094 143.066406 205.449219 C 142.359375 206.460938 142.09375 207.582031 142.273438 208.804688 C 142.453125 210.105469 142.351562 211.378906 141.96875 212.632812 C 141.753906 213.363281 141.652344 214.105469 141.664062 214.863281 C 141.613281 216.371094 141.3125 217.828125 140.757812 219.230469 C 140.46875 220.152344 140.226562 221.082031 140.03125 222.027344 C 139.996094 222.460938 139.890625 222.875 139.710938 223.273438 C 138.179688 225.363281 138.59375 227.984375 137.800781 230.238281 C 136.480469 233.960938 136.21875 238.023438 134.046875 241.46875 C 133.75 241.929688 133.570312 242.433594 133.511719 242.976562 C 133.449219 243.523438 133.511719 244.054688 133.699219 244.570312 C 133.96875 245.269531 134.199219 245.988281 134.382812 246.714844 C 134.488281 247.082031 134.527344 247.457031 134.503906 247.835938 C 134.476562 248.21875 134.386719 248.582031 134.230469 248.929688 C 134.078125 249.277344 133.867188 249.589844 133.601562 249.867188 C 133.339844 250.140625 133.035156 250.363281 132.695312 250.53125 C 132.507812 250.640625 132.308594 250.726562 132.101562 250.792969 C 130.644531 251.265625 129.664062 252.0625 129.53125 253.707031 C 129.464844 254.515625 128.804688 254.945312 128.074219 255.324219 C 125.402344 256.777344 122.820312 255.925781 120.308594 254.964844 C 119.105469 254.507812 118.019531 253.792969 116.664062 253.953125 C 116.332031 253.972656 116.019531 253.90625 115.726562 253.75 C 113.085938 252.535156 110.320312 251.761719 107.433594 251.433594 C 107.027344 251.3125 106.632812 251.164062 106.246094 250.984375 C 104.949219 250.433594 103.59375 250.136719 102.179688 250.09375 C 101.429688 250.078125 100.699219 249.933594 99.996094 249.664062 C 97.652344 248.886719 95.25 248.441406 92.78125 248.332031 C 92.449219 248.355469 92.144531 248.273438 91.863281 248.09375 C 90.894531 247.160156 89.730469 247.363281 88.550781 247.292969 C 86.273438 247.179688 84.121094 246.601562 82.09375 245.558594 C 79.941406 244.289062 77.632812 243.453125 75.164062 243.046875 C 73.707031 242.871094 72.300781 242.070312 70.742188 242.320312 C 70.523438 242.339844 70.3125 242.304688 70.109375 242.210938 L 64.105469 239.203125 C 63.460938 238.867188 62.800781 238.570312 62.125 238.308594 C 61.117188 237.929688 60.089844 237.613281 59.042969 237.359375 C 57.625 237.050781 56.433594 236.355469 55.464844 235.277344 C 54.96875 234.699219 54.375 234.25 53.6875 233.925781 C 52.996094 233.597656 52.269531 233.429688 51.507812 233.414062 C 50.746094 233.394531 50.027344 233.203125 49.359375 232.839844 C 48.6875 232.476562 48.132812 231.980469 47.699219 231.355469 C 46.941406 230.574219 46.042969 230.035156 44.996094 229.738281 C 43.554688 229.25 42.25 228.523438 41.078125 227.554688 C 40.59375 227.121094 40.042969 226.820312 39.414062 226.65625 C 38.097656 226.332031 37.066406 225.605469 36.320312 224.472656 C 35.277344 223.050781 33.9375 222.007812 32.296875 221.351562 C 30.914062 220.765625 29.839844 219.652344 28.296875 219.304688 C 27.765625 219.132812 27.320312 218.828125 26.964844 218.398438 C 26.609375 217.964844 26.398438 217.472656 26.328125 216.914062 C 26.171875 216.175781 25.863281 215.5 25.40625 214.898438 C 24.949219 214.292969 24.382812 213.8125 23.714844 213.457031 C 22.554688 212.730469 21.703125 211.570312 20.246094 211.207031 C 19.632812 210.941406 19.203125 210.5 18.964844 209.875 C 18.65625 208.9375 18.113281 208.164062 17.339844 207.550781 C 16.824219 207.148438 16.457031 206.636719 16.230469 206.023438 C 15.601562 204.519531 14.675781 203.230469 13.449219 202.15625 C 12.011719 200.960938 10.992188 199.480469 10.394531 197.707031 C 9.925781 195.976562 8.953125 194.59375 7.480469 193.566406 C 6.714844 192.941406 6.183594 192.160156 5.894531 191.214844 C 5.507812 189.972656 4.9375 188.828125 4.179688 187.769531 C 4.121094 187.679688 4.070312 187.585938 4.027344 187.484375 C 3.90625 187.1875 3.648438 186.867188 3.6875 186.589844 C 4 184.449219 2.019531 182.90625 2.230469 180.765625 C 2.265625 180.222656 2.195312 179.691406 2.019531 179.179688 C 0.9375 176.128906 1.574219 173.0625 1.921875 169.996094 C 1.957031 169.339844 2.136719 168.726562 2.472656 168.160156 C 2.804688 167.59375 3.25 167.132812 3.808594 166.785156 C 4.53125 166.289062 5.0625 165.636719 5.398438 164.828125 C 6.351562 163.015625 11.957031 158.128906 13.964844 157.773438 C 16.710938 157.199219 19.285156 156.195312 21.6875 154.757812 C 22.136719 154.433594 22.636719 154.257812 23.191406 154.226562 C 25.375 154.460938 26.605469 152.652344 28.289062 151.917969 C 28.339844 151.917969 28.328125 151.480469 28.289062 151.445312 C 27.605469 151.125 26.90625 150.855469 26.214844 150.550781 C 26.117188 150.5 26.039062 150.433594 25.976562 150.347656 C 25.917969 150.257812 25.878906 150.164062 25.867188 150.054688 C 25.851562 149.949219 25.867188 149.847656 25.902344 149.746094 C 25.941406 149.648438 26 149.5625 26.082031 149.492188 C 26.546875 149.054688 27.066406 148.695312 27.640625 148.414062 C 29.847656 147.546875 32.097656 146.816406 34.394531 146.230469 C 36.300781 145.882812 38.222656 145.75 40.160156 145.832031 C 41.148438 145.914062 42.074219 146.199219 42.941406 146.683594 C 43.449219 146.996094 44 147.1875 44.59375 147.257812 C 45.1875 147.328125 45.769531 147.269531 46.335938 147.082031 C 46.707031 146.980469 47.078125 146.972656 47.453125 147.054688 C 47.828125 147.136719 48.164062 147.300781 48.457031 147.550781 C 49.050781 148.003906 49.699219 148.363281 50.402344 148.628906 C 51.671875 148.925781 52.828125 149.464844 53.871094 150.242188 C 54.382812 150.652344 54.964844 150.917969 55.609375 151.035156 C 56.902344 151.324219 58.019531 151.933594 58.960938 152.855469 C 60.035156 153.746094 61.0625 154.699219 62.203125 155.492188 C 64.238281 156.90625 66.226562 158.339844 67.617188 160.453125 C 67.933594 160.894531 68.328125 161.242188 68.804688 161.5 C 69.625 161.886719 70.179688 162.507812 70.472656 163.363281 C 70.5625 163.648438 70.792969 164.035156 71.035156 164.09375 C 71.710938 164.285156 72.324219 164.605469 72.875 165.042969 C 73.425781 165.484375 73.867188 166.015625 74.203125 166.632812 C 74.28125 166.71875 74.375 166.769531 74.488281 166.777344 C 76.796875 166.867188 78.648438 168.367188 80.828125 168.859375 C 81.746094 169.144531 82.644531 169.480469 83.523438 169.867188 C 83.800781 169.960938 84.25 170.105469 84.25 169.648438 C 84.25 168.25 84.980469 166.960938 84.746094 165.519531 C 84.601562 164.875 84.632812 164.238281 84.832031 163.613281 C 85.269531 162.519531 84.914062 161.5 84.832031 160.445312 C 84.738281 158.214844 84.457031 155.960938 85.375 153.820312 C 85.765625 152.878906 85.777344 151.933594 85.410156 150.984375 C 85.210938 150.417969 85.136719 149.835938 85.183594 149.238281 C 85.230469 148.640625 85.394531 148.078125 85.679688 147.550781 C 85.964844 146.972656 86.136719 146.339844 86.40625 145.75 C 86.972656 144.679688 87.21875 143.539062 87.136719 142.328125 C 87.054688 141.675781 87.125 141.039062 87.351562 140.417969 C 87.578125 139.796875 87.929688 139.261719 88.410156 138.8125 C 89.121094 138.253906 89.523438 137.527344 89.621094 136.628906 C 89.726562 135.289062 90.238281 134.132812 91.15625 133.15625 C 91.832031 132.402344 92.152344 131.523438 92.113281 130.511719 C 92.136719 129.742188 92.378906 129.046875 92.839844 128.429688 C 93.765625 127.113281 94.769531 125.859375 95.851562 124.664062 C 98.152344 122.132812 100.460938 119.570312 102.894531 117.195312 C 104.761719 115.261719 106.78125 113.507812 108.957031 111.929688 C 110.675781 110.832031 112.523438 110.042969 114.507812 109.566406 C 116.324219 109.105469 118.136719 109.132812 119.9375 109.652344 C 120.664062 109.847656 121.394531 110.074219 122.121094 110.277344 C 123.058594 110.636719 124.007812 110.671875 124.972656 110.386719 C 126.128906 109.972656 127.019531 110.53125 127.886719 111.289062 C 129.394531 112.628906 129.996094 114.515625 130.863281 116.21875 C 131.585938 117.847656 132.214844 119.507812 132.75 121.207031 Z M 97.402344 176.492188 C 97.632812 176.957031 97.910156 177.390625 98.238281 177.792969 C 98.960938 178.59375 99.777344 179.285156 100.6875 179.863281 C 102.152344 180.621094 103.316406 181.703125 104.175781 183.109375 C 104.675781 183.984375 105.40625 184.578125 106.363281 184.886719 C 106.648438 185.007812 106.9375 185.007812 107.222656 184.886719 C 107.464844 184.664062 107.558594 184.394531 107.507812 184.070312 C 106.421875 181.945312 107.070312 179.398438 105.808594 177.308594 C 105.601562 176.792969 105.566406 176.269531 105.707031 175.734375 C 105.914062 174.863281 105.757812 174.0625 105.242188 173.332031 C 104.839844 172.742188 104.578125 172.097656 104.449219 171.398438 C 104.324219 170.699219 104.34375 170.003906 104.511719 169.3125 C 104.78125 168.125 104.671875 166.972656 104.175781 165.859375 C 103.960938 165.414062 103.871094 164.941406 103.902344 164.449219 C 103.933594 163.953125 104.082031 163.496094 104.351562 163.078125 C 104.5625 162.753906 104.683594 162.398438 104.71875 162.011719 C 104.753906 161.625 104.695312 161.253906 104.550781 160.894531 C 104.351562 160.292969 104.433594 159.585938 104.183594 159.007812 C 103.582031 157.453125 103.519531 155.875 103.996094 154.277344 C 104.066406 153.644531 104.066406 153.015625 103.996094 152.382812 C 103.917969 151.644531 103.917969 150.902344 103.996094 150.164062 C 104.15625 149.320312 104.183594 148.472656 104.082031 147.621094 C 103.929688 146.027344 103.761719 144.402344 104.949219 143.019531 C 105.15625 142.640625 105.28125 142.238281 105.335938 141.8125 C 106.0625 139.394531 105.859375 136.714844 107.476562 134.53125 C 107.652344 134.246094 107.726562 133.933594 107.695312 133.597656 C 107.492188 130.789062 109.152344 128.503906 109.789062 125.902344 C 109.949219 125.371094 110.25 124.9375 110.691406 124.601562 C 111.996094 123.617188 112.359375 122.144531 112.875 120.742188 C 112.871094 120.546875 112.789062 120.398438 112.621094 120.296875 C 112.410156 120.226562 112.214844 120.253906 112.03125 120.375 C 111.441406 120.988281 110.660156 121.5625 110.398438 122.304688 C 109.980469 123.320312 109.304688 124.117188 108.375 124.695312 C 107.582031 125.238281 106.832031 125.84375 106.128906 126.5 C 105.234375 127.402344 104.441406 128.421875 103.601562 129.414062 C 103.550781 131.144531 101.890625 131.40625 100.964844 132.324219 C 100.4375 132.886719 100.148438 133.550781 100.089844 134.320312 C 100.089844 135.40625 99.257812 136.058594 99.011719 136.941406 C 98.734375 137.9375 98.925781 139.058594 98.800781 140.121094 C 98.6875 140.539062 98.488281 140.910156 98.195312 141.230469 C 96.441406 143.75 96.0625 146.769531 95.121094 149.582031 C 94.996094 149.878906 94.898438 150.183594 94.828125 150.5 C 94.792969 150.820312 94.8125 151.136719 94.886719 151.453125 C 95.050781 152.03125 95.089844 152.613281 95.003906 153.207031 C 94.917969 153.800781 94.714844 154.351562 94.394531 154.859375 C 94.246094 155.257812 94.191406 155.667969 94.226562 156.089844 C 94.050781 158.09375 94.617188 160.132812 93.855469 162.117188 C 93.707031 162.484375 94.058594 163.175781 94.378906 163.574219 C 95.179688 164.382812 95.554688 165.351562 95.507812 166.488281 C 95.484375 167.78125 95.667969 169.042969 96.070312 170.273438 C 96.273438 171.199219 96.015625 172.28125 96.394531 173.097656 C 97.023438 174.144531 97.359375 175.273438 97.402344 176.492188 Z M 123.929688 151.007812 C 124.023438 151.3125 124.308594 151.734375 124.25 152.136719 C 123.855469 154.648438 124.621094 157.015625 125.085938 159.417969 C 125.109375 159.523438 125.109375 159.632812 125.085938 159.738281 C 124.746094 161.070312 125.261719 162.277344 125.566406 163.523438 C 125.84375 164.34375 125.9375 165.183594 125.859375 166.042969 C 125.40625 168.703125 125.320312 171.371094 125.613281 174.050781 C 125.761719 175.65625 125.730469 177.253906 125.515625 178.851562 C 125.414062 180.339844 125.453125 181.824219 125.625 183.304688 C 125.738281 184.152344 125.777344 185.003906 125.742188 185.855469 C 125.421875 187.664062 125.359375 189.480469 125.554688 191.308594 C 125.652344 192.179688 125.519531 193.015625 125.152344 193.8125 C 124.242188 195.65625 124.425781 197.546875 124.5625 199.449219 C 124.621094 200.628906 124.808594 201.792969 124.789062 202.964844 C 124.789062 204.421875 124.789062 205.980469 123.332031 207.0625 C 122.980469 207.464844 122.789062 207.929688 122.757812 208.460938 C 122.660156 209.089844 122.929688 209.832031 122.691406 210.363281 C 121.773438 212.351562 123.417969 213.53125 124.015625 215.03125 C 124.015625 215.03125 124.183594 215.089844 124.257812 215.03125 C 124.328125 214.972656 124.488281 214.90625 124.496094 214.832031 C 124.695312 213.378906 124.867188 211.863281 125.058594 210.378906 C 125.222656 209.765625 125.300781 209.144531 125.292969 208.511719 C 125.0625 207.535156 125.183594 206.605469 125.664062 205.726562 C 125.902344 205.230469 125.980469 204.714844 125.902344 204.171875 C 125.761719 203.101562 125.828125 202.042969 126.101562 201 C 126.703125 198.515625 127.140625 195.988281 127.628906 193.476562 C 127.757812 193.066406 127.804688 192.640625 127.769531 192.210938 C 127.324219 189.867188 128.554688 187.515625 127.730469 185.164062 C 127.6875 184.726562 127.769531 184.3125 127.980469 183.925781 C 128.433594 182.804688 128.578125 181.648438 128.410156 180.453125 C 128.324219 179.90625 128.410156 179.386719 128.664062 178.894531 C 129.4375 177.621094 129.042969 176.410156 128.722656 175.152344 C 128.042969 172.726562 127.960938 170.285156 128.476562 167.820312 C 128.710938 167.101562 128.78125 166.371094 128.6875 165.621094 C 128.597656 164.871094 128.351562 164.179688 127.949219 163.539062 C 127.539062 162.957031 127.273438 162.3125 127.164062 161.605469 C 127.050781 160.902344 127.097656 160.207031 127.308594 159.527344 C 127.433594 159.105469 127.433594 158.6875 127.308594 158.265625 C 126.382812 155.355469 126.539062 152.324219 126.144531 149.355469 C 125.984375 147.550781 125.726562 145.757812 125.371094 143.980469 C 125.136719 143.253906 125.136719 142.527344 125.371094 141.796875 C 126.152344 140.289062 125.890625 138.886719 125.371094 137.429688 C 125.007812 136.425781 124.644531 135.410156 124.351562 134.378906 C 124.085938 133.664062 124.035156 132.9375 124.199219 132.195312 C 124.546875 131.128906 124.484375 130.089844 124 129.078125 C 123.550781 127.765625 122.84375 126.515625 123.644531 125.066406 C 123.78125 124.804688 123.527344 124.25 123.347656 123.894531 C 123.074219 123.429688 122.765625 122.992188 122.429688 122.574219 C 122.355469 122.496094 122.265625 122.441406 122.167969 122.40625 C 122.066406 122.367188 121.960938 122.359375 121.855469 122.371094 C 121.75 122.386719 121.652344 122.425781 121.5625 122.488281 C 121.476562 122.546875 121.40625 122.625 121.355469 122.722656 C 120.78125 123.632812 120.269531 124.578125 119.636719 125.445312 C 118.449219 127.089844 118.085938 128.765625 120.132812 130.066406 C 120.597656 130.355469 120.96875 130.738281 121.242188 131.210938 C 121.519531 131.683594 121.667969 132.191406 121.691406 132.738281 C 121.890625 134.984375 122.195312 137.230469 122.164062 139.476562 C 122.164062 141.433594 122.121094 143.355469 122.859375 145.183594 C 123.59375 147.011719 122.980469 149.101562 123.929688 150.992188 Z M 50.5625 213.472656 L 50.707031 213.382812 C 49.664062 211.761719 48.667969 210.113281 47.558594 208.535156 C 47.207031 207.988281 46.722656 207.609375 46.101562 207.398438 C 44.691406 207.078125 43.917969 206.007812 43.128906 205.039062 C 41.78125 203.402344 40.945312 201.347656 39.085938 200.109375 C 38.820312 199.898438 38.660156 199.625 38.605469 199.289062 C 38.46875 198.210938 37.761719 197.648438 36.9375 197.058594 C 36.296875 196.488281 35.691406 195.882812 35.125 195.238281 C 34.023438 194.3125 33.277344 193.160156 32.886719 191.773438 C 32.617188 191.078125 32.277344 190.414062 31.875 189.785156 C 31.144531 188.25 30.117188 186.78125 29.6875 185.15625 C 29.167969 183.265625 28.210938 181.628906 26.816406 180.25 C 24.691406 178.0625 25.507812 175.230469 28.40625 174.199219 C 28.8125 174.050781 29.230469 173.929688 29.628906 173.777344 C 30.675781 173.351562 31.722656 173.351562 32.769531 173.777344 C 34.386719 174.378906 35.984375 174.976562 37.089844 176.402344 C 37.148438 176.484375 37.441406 176.402344 37.609375 176.359375 C 37.652344 176.359375 37.679688 176.164062 37.671875 176.0625 C 37.640625 175.679688 37.519531 175.328125 37.3125 175.007812 C 37.105469 174.683594 36.835938 174.429688 36.5 174.242188 C 34.488281 173.003906 33.242188 170.886719 31.203125 169.660156 C 30.667969 169.269531 30.289062 168.757812 30.066406 168.132812 C 29.296875 166.238281 27.800781 165.359375 25.90625 164.949219 C 25.054688 164.769531 24.699219 164.90625 24.382812 165.679688 C 24.101562 166.261719 23.890625 166.867188 23.75 167.5 C 23.453125 169.625 23.210938 171.757812 23.023438 173.890625 C 22.902344 174.644531 22.933594 175.390625 23.117188 176.128906 C 23.445312 177.125 24.144531 178.007812 24.464844 179.039062 C 24.714844 180.074219 24.890625 181.121094 24.996094 182.179688 C 25.074219 182.382812 25.183594 182.566406 25.324219 182.730469 C 25.871094 183.523438 26.453125 184.289062 26.957031 185.113281 C 27.792969 186.472656 29.019531 187.617188 29.425781 189.226562 C 30.078125 191.558594 31.335938 193.5 33.199219 195.050781 C 34.539062 196.324219 35.542969 197.820312 36.210938 199.542969 C 36.859375 201.398438 37.964844 202.929688 39.523438 204.128906 C 41.257812 205.273438 42.714844 206.699219 43.894531 208.402344 C 45.578125 211.0625 48.363281 212.363281 50.410156 214.519531 C 50.460938 214.570312 50.664062 214.570312 50.691406 214.519531 C 50.816406 214.386719 50.890625 214.230469 50.910156 214.046875 C 50.828125 213.835938 50.710938 213.644531 50.5625 213.472656 Z M 54.328125 202.828125 C 54.695312 203.585938 55.195312 204.242188 55.828125 204.804688 C 56.460938 205.363281 57.175781 205.777344 57.972656 206.050781 C 58.574219 206.335938 59.0625 206.753906 59.429688 207.3125 C 60.664062 209.097656 62.261719 210.449219 64.230469 211.367188 C 65.300781 211.769531 66.054688 212.496094 66.496094 213.550781 C 66.8125 214.394531 67.394531 214.96875 68.246094 215.269531 C 69.4375 215.832031 70.378906 216.675781 71.070312 217.796875 C 71.835938 218.84375 72.75 219.742188 73.8125 220.492188 C 75.582031 221.835938 77.671875 222.753906 79.101562 224.566406 C 79.496094 224.945312 79.953125 225.210938 80.476562 225.363281 C 82.09375 226.015625 83.503906 226.972656 84.703125 228.238281 C 85.5625 229.054688 86.488281 229.78125 87.484375 230.421875 C 88.25 231.0625 89.128906 231.414062 90.125 231.46875 C 90.640625 230.363281 89.640625 229.730469 89.316406 228.886719 C 88.585938 226.847656 87.484375 225.042969 86.007812 223.460938 C 85.535156 222.859375 84.933594 222.445312 84.199219 222.222656 C 83.613281 222.109375 83.074219 221.886719 82.582031 221.546875 C 82.089844 221.207031 81.6875 220.785156 81.375 220.28125 C 81.027344 219.867188 80.625 219.527344 80.164062 219.253906 C 78.195312 217.796875 76.460938 216.011719 74.015625 215.261719 C 73.234375 215.03125 72.660156 214.097656 71.878906 213.910156 C 70.710938 213.566406 69.773438 212.902344 69.058594 211.914062 C 68.023438 210.46875 66.652344 209.5 64.945312 209 C 64.535156 208.867188 64.152344 208.675781 63.800781 208.425781 C 62.332031 207.550781 60.964844 206.539062 59.699219 205.390625 C 57.890625 203.765625 55.699219 202.570312 53.660156 201.210938 C 53.542969 201.128906 53.316406 201.210938 53.148438 201.210938 C 53.148438 201.3125 53.148438 201.445312 53.148438 201.5 C 53.492188 201.902344 53.871094 202.296875 54.328125 202.828125 Z M 37.796875 153.972656 L 37.796875 153.890625 C 36.472656 154.320312 35.136719 154.734375 33.820312 155.195312 C 33.546875 155.339844 33.304688 155.523438 33.089844 155.746094 C 33.3125 156.078125 33.574219 156.375 33.871094 156.644531 C 34.222656 156.902344 34.609375 157.082031 35.035156 157.175781 C 37.441406 157.746094 39.871094 158.183594 42.320312 158.484375 C 46.796875 158.886719 51.171875 159.769531 55.449219 161.128906 C 56.585938 161.484375 57.636719 162.003906 58.867188 161.523438 C 59.355469 161.324219 58.867188 160.792969 56.871094 158.964844 C 55.5 157.742188 54.167969 156.527344 52.296875 156.097656 C 51.796875 155.925781 51.347656 155.660156 50.957031 155.304688 C 49.769531 154.429688 48.71875 153.265625 46.992188 153.664062 C 46.832031 153.664062 46.585938 153.535156 46.425781 153.402344 C 44.902344 152.210938 43.203125 152.480469 41.535156 152.863281 C 40.246094 153.15625 39.027344 153.59375 37.796875 153.972656 Z M 81.148438 184.75 C 80.964844 184.449219 80.835938 183.917969 80.511719 183.757812 C 78.910156 182.957031 78.554688 180.96875 76.957031 180.160156 C 76.628906 179.992188 76.476562 179.484375 76.230469 179.128906 C 75.785156 178.398438 75.40625 177.632812 74.910156 176.941406 C 73.914062 175.546875 72.90625 174.148438 71.808594 172.828125 C 71.113281 171.867188 70.265625 171.070312 69.265625 170.433594 C 67.867188 169.707031 66.167969 169.65625 64.835938 168.6875 C 63.253906 168.867188 61.921875 168.074219 60.542969 167.542969 C 59.539062 167.15625 58.707031 167.308594 58.910156 167.625 C 59.214844 168.066406 59.566406 168.464844 59.976562 168.816406 C 60.238281 169 60.527344 169.125 60.84375 169.195312 C 62.082031 169.621094 63.179688 170.285156 64.136719 171.183594 C 65.121094 172.214844 66.28125 172.96875 67.625 173.449219 C 68.050781 173.582031 68.398438 173.824219 68.667969 174.175781 C 70.023438 175.839844 71.578125 177.296875 73.328125 178.542969 C 74.058594 179.132812 74.648438 180 75.464844 180.445312 C 77.351562 181.527344 78.925781 182.953125 80.1875 184.726562 C 80.3125 184.890625 80.464844 185.027344 80.636719 185.140625 C 80.75 185.175781 80.851562 185.160156 80.949219 185.097656 C 81.050781 185.046875 81.066406 184.921875 81.148438 184.75 Z M 87.601562 180.308594 L 87.253906 179.761719 C 86.925781 179.1875 86.476562 178.738281 85.902344 178.410156 C 85.332031 178.082031 84.714844 177.917969 84.054688 177.925781 C 83.542969 177.925781 82.726562 177.632812 82.597656 177.839844 C 82.234375 178.371094 82.910156 178.734375 83.214844 179.140625 C 83.523438 179.550781 84.214844 180.09375 84.351562 180.664062 C 84.777344 182.351562 86.726562 183.160156 86.75 185.03125 C 87.480469 185.964844 88.171875 186.902344 88.9375 187.8125 C 89.023438 187.914062 89.292969 187.878906 89.476562 187.863281 C 89.527344 187.863281 89.613281 187.683594 89.589844 187.609375 C 89.484375 186.871094 89.277344 186.164062 88.972656 185.484375 C 88.097656 184.070312 87.433594 182.652344 87.703125 180.941406 C 87.695312 180.726562 87.660156 180.515625 87.601562 180.308594 Z M 61.214844 182.492188 C 60.652344 181.980469 60.035156 181.421875 59.40625 180.867188 C 59.304688 180.816406 59.203125 180.816406 59.101562 180.867188 C 59.015625 180.945312 58.976562 181.042969 58.984375 181.160156 C 59.007812 181.398438 59.070312 181.632812 59.171875 181.851562 C 59.273438 182.070312 59.410156 182.265625 59.582031 182.441406 C 59.753906 182.613281 59.945312 182.75 60.164062 182.855469 C 60.386719 182.960938 60.613281 183.027344 60.855469 183.050781 C 60.949219 183.066406 61.027344 183.039062 61.089844 182.972656 C 61.15625 182.898438 61.15625 182.78125 61.214844 182.519531 Z M 64.449219 185.230469 C 64.449219 185.410156 64.324219 185.679688 64.449219 185.773438 C 64.980469 186.460938 65.679688 186.8125 66.546875 186.832031 C 66.644531 186.808594 66.714844 186.75 66.757812 186.664062 C 66.800781 186.574219 66.800781 186.488281 66.757812 186.402344 C 66.574219 186.019531 66.304688 185.71875 65.945312 185.496094 C 65.589844 185.273438 65.199219 185.160156 64.777344 185.164062 C 64.664062 185.179688 64.554688 185.210938 64.449219 185.257812 Z M 69.972656 189.597656 L 69.90625 189.351562 L 69.652344 189.496094 C 69.699219 189.566406 69.75 189.636719 69.8125 189.699219 C 69.8125 189.699219 69.898438 189.632812 69.972656 189.597656 Z M 69.972656 189.597656 " fill-opacity="1" fill-rule="nonzero"/><g clip-path="url(#6868dbbd77)"><path fill="#ff9797" d="M 288.023438 76.707031 C 287.105469 77.832031 285.839844 79.363281 284.605469 80.90625 C 284.332031 81.25 284.089844 81.617188 283.878906 82.007812 C 283.71875 82.289062 283.660156 82.632812 283.5 82.917969 C 282.328125 85 280.78125 86.890625 280.257812 89.308594 C 280.140625 89.625 279.957031 89.898438 279.703125 90.125 C 276.722656 93.378906 274.605469 97.238281 271.945312 100.726562 C 271.539062 101.382812 271.050781 101.980469 270.488281 102.507812 C 269.226562 103.445312 268.34375 104.660156 267.84375 106.148438 C 267.574219 106.878906 266.734375 107.46875 266.066406 108.007812 C 265.125 108.761719 264.144531 109.453125 263.113281 110.082031 C 262.097656 110.609375 261.40625 111.417969 261.046875 112.507812 C 260.855469 113.097656 260.539062 113.617188 260.101562 114.058594 C 259.660156 114.5 259.144531 114.816406 258.554688 115.011719 C 256.097656 115.796875 254.664062 117.710938 253.109375 119.523438 C 252.980469 119.703125 252.859375 119.886719 252.753906 120.078125 C 252.480469 120.570312 252.105469 120.964844 251.628906 121.261719 C 251.152344 121.558594 250.632812 121.722656 250.074219 121.753906 C 249.390625 121.765625 248.765625 121.960938 248.199219 122.339844 C 247.628906 122.71875 247.210938 123.222656 246.941406 123.851562 C 246.050781 125.917969 244.425781 126.855469 242.410156 127.257812 C 241.515625 127.394531 240.785156 127.820312 240.222656 128.523438 C 239.613281 129.15625 238.953125 129.722656 238.234375 130.226562 C 237.503906 130.863281 236.734375 131.496094 235.960938 132.105469 C 235.449219 132.511719 234.917969 132.890625 234.363281 133.234375 C 232.808594 134.050781 231.3125 134.96875 229.878906 135.980469 C 228.78125 136.957031 227.496094 137.503906 226.03125 137.609375 C 224.765625 137.675781 223.6875 138.160156 222.800781 139.066406 C 221.863281 140.023438 220.765625 140.738281 219.507812 141.207031 C 218.785156 141.488281 218.117188 141.867188 217.507812 142.34375 C 216.246094 143.253906 214.867188 143.921875 213.375 144.351562 C 212.445312 144.6875 211.539062 145.074219 210.648438 145.511719 C 210.277344 145.75 209.878906 145.921875 209.449219 146.027344 C 206.789062 146.085938 204.921875 148.058594 202.59375 148.816406 C 198.746094 150.070312 195.304688 152.390625 191.125 152.777344 C 190.566406 152.820312 190.046875 152.988281 189.5625 153.277344 C 189.082031 153.566406 188.691406 153.949219 188.390625 154.421875 C 187.984375 155.078125 187.542969 155.714844 187.066406 156.324219 C 186.835938 156.636719 186.554688 156.902344 186.230469 157.117188 C 185.90625 157.332031 185.550781 157.488281 185.171875 157.578125 C 184.792969 157.671875 184.410156 157.695312 184.019531 157.652344 C 183.632812 157.609375 183.265625 157.5 182.914062 157.328125 C 182.714844 157.238281 182.519531 157.136719 182.339844 157.015625 C 181.054688 156.140625 179.789062 155.820312 178.351562 156.753906 C 177.625 157.195312 176.894531 156.941406 176.167969 156.605469 C 173.332031 155.332031 172.402344 152.71875 171.613281 150.054688 C 171.242188 148.789062 171.148438 147.46875 170.15625 146.449219 C 169.933594 146.195312 169.792969 145.902344 169.734375 145.570312 C 169.078125 142.667969 167.980469 139.941406 166.449219 137.390625 C 166.289062 136.984375 166.164062 136.566406 166.070312 136.140625 C 165.707031 134.742188 165.105469 133.460938 164.261719 132.289062 C 163.773438 131.675781 163.402344 131 163.15625 130.257812 C 162.328125 127.871094 161.1875 125.640625 159.738281 123.574219 C 159.511719 123.316406 159.386719 123.019531 159.359375 122.675781 C 159.511719 121.308594 158.628906 120.492188 157.945312 119.488281 C 156.617188 117.570312 155.742188 115.464844 155.324219 113.167969 C 155.019531 110.628906 154.257812 108.234375 153.042969 105.980469 C 152.261719 104.671875 152.050781 103.070312 150.855469 101.941406 C 150.695312 101.78125 150.59375 101.589844 150.550781 101.367188 C 150.105469 99.117188 149.683594 96.867188 149.246094 94.617188 C 149.132812 93.882812 148.980469 93.152344 148.792969 92.433594 C 148.46875 91.378906 148.085938 90.347656 147.644531 89.335938 C 147.011719 87.996094 146.832031 86.601562 147.105469 85.144531 C 147.261719 84.382812 147.257812 83.621094 147.09375 82.859375 C 146.925781 82.097656 146.613281 81.402344 146.148438 80.777344 C 145.6875 80.148438 145.390625 79.449219 145.261719 78.679688 C 145.132812 77.910156 145.1875 77.152344 145.421875 76.40625 C 145.578125 75.304688 145.457031 74.238281 145.050781 73.203125 C 144.546875 71.730469 144.320312 70.214844 144.371094 68.660156 C 144.433594 67.996094 144.339844 67.355469 144.089844 66.738281 C 143.53125 65.46875 143.480469 64.179688 143.933594 62.871094 C 144.429688 61.132812 144.429688 59.390625 143.933594 57.652344 C 143.542969 56.195312 143.78125 54.609375 143.097656 53.136719 C 142.910156 52.59375 142.878906 52.046875 143.011719 51.488281 C 143.144531 50.929688 143.414062 50.449219 143.824219 50.050781 C 144.328125 49.457031 144.683594 48.789062 144.890625 48.039062 C 145.097656 47.292969 145.136719 46.535156 145.007812 45.769531 C 144.882812 44.371094 145.28125 42.964844 144.664062 41.550781 C 144.5 40.886719 144.597656 40.265625 144.957031 39.679688 C 145.527344 38.847656 145.816406 37.925781 145.824219 36.914062 C 145.835938 36.246094 146.019531 35.625 146.375 35.058594 C 147.242188 33.605469 147.734375 32.035156 147.855469 30.347656 C 147.933594 28.4375 148.503906 26.6875 149.566406 25.097656 C 150.683594 23.640625 151.203125 21.996094 151.125 20.160156 C 151.148438 19.148438 151.453125 18.226562 152.042969 17.402344 C 152.8125 16.316406 153.390625 15.140625 153.777344 13.871094 C 153.8125 13.765625 153.855469 13.667969 153.910156 13.570312 C 154.078125 13.28125 154.171875 12.84375 154.425781 12.734375 C 156.363281 11.648438 156.371094 9.09375 158.199219 7.90625 C 158.671875 7.609375 159.066406 7.230469 159.382812 6.769531 C 161.222656 4.011719 164.101562 2.621094 166.8125 0.945312 C 167.367188 0.566406 167.980469 0.332031 168.648438 0.25 C 169.320312 0.167969 169.96875 0.246094 170.601562 0.480469 C 171.453125 0.757812 172.3125 0.78125 173.179688 0.546875 C 175.25 0.21875 182.722656 1.710938 184.285156 3.128906 C 186.464844 4.996094 188.894531 6.453125 191.570312 7.5 C 192.109375 7.664062 192.566406 7.960938 192.9375 8.386719 C 194.113281 10.308594 196.339844 10.1875 198.039062 11.117188 C 198.089844 11.117188 198.417969 10.878906 198.394531 10.789062 C 198.234375 10.0625 198.015625 9.335938 197.835938 8.554688 C 197.8125 8.449219 197.816406 8.339844 197.851562 8.234375 C 197.882812 8.132812 197.9375 8.039062 198.015625 7.960938 C 198.089844 7.886719 198.183594 7.832031 198.289062 7.796875 C 198.394531 7.765625 198.5 7.761719 198.605469 7.785156 C 199.261719 7.890625 199.882812 8.097656 200.472656 8.402344 C 202.550781 9.648438 204.542969 11.027344 206.445312 12.53125 C 207.894531 13.863281 209.179688 15.34375 210.292969 16.964844 C 210.828125 17.804688 211.167969 18.71875 211.3125 19.703125 C 211.378906 20.3125 211.566406 20.878906 211.882812 21.402344 C 212.195312 21.929688 212.605469 22.363281 213.113281 22.710938 C 213.425781 22.949219 213.664062 23.246094 213.828125 23.601562 C 213.996094 23.960938 214.070312 24.332031 214.050781 24.726562 C 214.054688 25.488281 214.167969 26.238281 214.386719 26.96875 C 214.9375 28.1875 215.222656 29.464844 215.238281 30.796875 C 215.230469 31.46875 215.375 32.105469 215.675781 32.707031 C 216.25 33.933594 216.457031 35.21875 216.296875 36.566406 C 216.238281 38.019531 216.105469 39.417969 216.171875 40.832031 C 216.289062 43.367188 216.363281 45.871094 215.515625 48.324219 C 215.359375 48.851562 215.320312 49.386719 215.402344 49.933594 C 215.601562 50.839844 215.445312 51.683594 214.933594 52.460938 C 214.71875 52.726562 214.636719 53.03125 214.6875 53.371094 C 214.949219 54.039062 215.074219 54.738281 215.058594 55.457031 C 215.042969 56.179688 214.890625 56.867188 214.597656 57.527344 C 214.570312 57.640625 214.589844 57.746094 214.65625 57.839844 C 216.027344 59.777344 215.953125 62.207031 216.914062 64.292969 C 217.257812 65.203125 217.554688 66.132812 217.796875 67.078125 C 217.890625 67.371094 218.066406 67.851562 218.445312 67.554688 C 219.574219 66.671875 221.097656 66.488281 222.089844 65.367188 C 222.535156 64.863281 223.078125 64.503906 223.71875 64.292969 C 224.878906 63.964844 225.484375 63.039062 226.3125 62.339844 C 228.0625 60.882812 229.722656 59.238281 232.035156 58.65625 C 233.042969 58.386719 233.816406 57.808594 234.359375 56.914062 C 234.695312 56.402344 235.121094 55.976562 235.632812 55.644531 C 236.148438 55.308594 236.710938 55.09375 237.316406 54.992188 C 237.964844 54.863281 238.582031 54.613281 239.222656 54.453125 C 240.449219 54.246094 241.527344 53.726562 242.460938 52.902344 C 242.9375 52.429688 243.5 52.09375 244.140625 51.886719 C 244.785156 51.679688 245.4375 51.632812 246.101562 51.738281 C 247.003906 51.972656 247.851562 51.84375 248.644531 51.359375 C 249.796875 50.609375 251.058594 50.304688 252.425781 50.433594 C 253.460938 50.515625 254.375 50.222656 255.171875 49.5625 C 255.816406 49.101562 256.53125 48.871094 257.320312 48.871094 C 258.96875 48.792969 260.617188 48.824219 262.261719 48.957031 C 265.75 49.25 269.25 49.539062 272.71875 50.011719 C 275.449219 50.324219 278.136719 50.871094 280.773438 51.652344 C 282.738281 52.359375 284.535156 53.375 286.160156 54.6875 C 287.664062 55.875 288.769531 57.363281 289.472656 59.144531 C 289.765625 59.871094 290.035156 60.601562 290.320312 61.292969 C 290.609375 62.277344 291.167969 63.070312 292.003906 63.671875 C 293.066406 64.355469 293.160156 65.425781 293.082031 66.585938 C 292.933594 68.652344 291.777344 70.3125 290.9375 72.082031 C 290.054688 73.679688 289.082031 75.21875 288.023438 76.707031 Z M 221.070312 82.492188 C 220.828125 82.96875 220.648438 83.46875 220.523438 83.988281 C 220.324219 85.070312 220.273438 86.160156 220.371094 87.253906 C 220.667969 88.917969 220.515625 90.539062 219.910156 92.121094 C 219.503906 93.082031 219.480469 94.050781 219.84375 95.03125 C 219.9375 95.308594 220.144531 95.671875 220.375 95.757812 C 220.707031 95.820312 220.992188 95.730469 221.222656 95.484375 C 222.261719 93.296875 224.742188 92.214844 225.652344 89.890625 C 225.941406 89.402344 226.34375 89.042969 226.867188 88.820312 C 227.703125 88.449219 228.257812 87.824219 228.527344 86.949219 C 228.753906 86.257812 229.113281 85.636719 229.601562 85.097656 C 230.089844 84.554688 230.667969 84.136719 231.335938 83.839844 C 232.46875 83.320312 233.332031 82.511719 233.929688 81.417969 C 234.15625 80.960938 234.480469 80.59375 234.902344 80.308594 C 235.324219 80.023438 235.789062 79.863281 236.296875 79.820312 C 236.683594 79.785156 237.042969 79.664062 237.375 79.457031 C 237.703125 79.25 237.96875 78.976562 238.167969 78.640625 C 238.546875 78.101562 239.167969 77.730469 239.480469 77.1875 C 240.367188 75.726562 241.609375 74.691406 243.203125 74.078125 C 243.769531 73.722656 244.285156 73.308594 244.753906 72.832031 C 245.308594 72.308594 245.914062 71.851562 246.570312 71.464844 C 247.355469 71.070312 248.0625 70.5625 248.6875 69.949219 C 249.890625 68.828125 251.109375 67.675781 252.972656 67.765625 C 253.367188 67.765625 253.78125 67.472656 254.1875 67.320312 C 256.621094 66.417969 258.683594 64.554688 261.476562 64.507812 C 261.816406 64.472656 262.117188 64.339844 262.371094 64.109375 C 264.558594 62.1875 267.472656 62.113281 269.925781 61.007812 C 270.460938 60.800781 271 60.773438 271.550781 60.925781 C 273.160156 61.371094 274.589844 60.753906 276.046875 60.28125 C 276.203125 60.15625 276.269531 59.996094 276.242188 59.800781 C 276.183594 59.625 275.972656 59.390625 275.8125 59.375 C 274.945312 59.28125 274 59.003906 273.234375 59.253906 C 272.148438 59.554688 271.078125 59.5 270.027344 59.09375 C 269.074219 58.816406 268.105469 58.605469 267.121094 58.464844 C 265.824219 58.300781 264.507812 58.285156 263.203125 58.210938 C 261.746094 59.253906 260.507812 58.066406 259.164062 57.90625 C 258.375 57.824219 257.644531 58.003906 256.980469 58.4375 C 256.082031 59.09375 255.050781 58.851562 254.183594 59.164062 C 253.199219 59.566406 252.398438 60.417969 251.464844 60.976562 C 251.054688 61.144531 250.628906 61.210938 250.191406 61.175781 C 247.042969 61.320312 244.359375 62.894531 241.445312 63.890625 C 241.128906 63.96875 240.820312 64.078125 240.519531 64.21875 C 240.246094 64.394531 240.003906 64.605469 239.792969 64.859375 C 239.429688 65.351562 238.980469 65.746094 238.449219 66.046875 C 237.917969 66.347656 237.347656 66.527344 236.738281 66.585938 C 236.363281 66.585938 236.011719 66.984375 235.632812 67.21875 C 233.898438 68.316406 232.601562 70.058594 230.53125 70.667969 C 230.148438 70.785156 229.804688 71.5 229.703125 71.988281 C 229.628906 72.539062 229.445312 73.054688 229.152344 73.53125 C 228.863281 74.007812 228.484375 74.40625 228.027344 74.726562 C 226.960938 75.511719 226.054688 76.453125 225.300781 77.542969 C 224.675781 78.269531 223.640625 78.757812 223.210938 79.574219 C 222.746094 80.730469 222.03125 81.703125 221.070312 82.492188 Z M 258.320312 88.121094 C 258.125 88.390625 257.949219 88.894531 257.589844 89.082031 C 255.304688 90.34375 253.855469 92.441406 252.1875 94.316406 C 252.117188 94.40625 252.03125 94.472656 251.929688 94.523438 C 250.640625 95.074219 249.976562 96.246094 249.15625 97.273438 C 248.664062 98.007812 248.042969 98.609375 247.296875 99.078125 C 244.863281 100.367188 242.648438 101.957031 240.652344 103.855469 C 239.445312 104.976562 238.128906 105.945312 236.703125 106.769531 C 235.425781 107.613281 234.238281 108.566406 233.140625 109.628906 C 232.527344 110.25 231.867188 110.8125 231.152344 111.3125 C 229.488281 112.175781 227.976562 113.246094 226.613281 114.53125 C 225.964844 115.15625 225.203125 115.570312 224.324219 115.769531 C 222.261719 116.175781 220.863281 117.539062 219.378906 118.804688 C 218.460938 119.582031 217.628906 120.464844 216.660156 121.175781 C 215.4375 122.085938 214.191406 123.035156 212.441406 122.566406 C 211.910156 122.542969 211.425781 122.679688 210.984375 122.976562 C 210.417969 123.289062 209.980469 123.980469 209.398438 124.113281 C 207.210938 124.605469 207.277344 126.667969 206.4375 128.09375 C 206.4375 128.132812 206.488281 128.269531 206.554688 128.3125 C 206.621094 128.355469 206.796875 128.421875 206.867188 128.386719 C 208.195312 127.65625 209.511719 126.835938 210.839844 126.0625 C 211.433594 125.8125 211.984375 125.492188 212.492188 125.09375 C 213.140625 124.289062 213.972656 123.804688 214.992188 123.636719 C 215.511719 123.523438 215.960938 123.28125 216.339844 122.902344 C 217.121094 122.128906 218.019531 121.523438 219.035156 121.097656 C 221.433594 120.035156 223.757812 118.8125 226.101562 117.644531 C 226.515625 117.488281 226.886719 117.265625 227.21875 116.96875 C 228.851562 115.140625 231.523438 114.675781 232.921875 112.542969 C 233.25 112.230469 233.636719 112.039062 234.082031 111.96875 C 235.277344 111.644531 236.304688 111.039062 237.171875 110.152344 C 237.570312 109.738281 238.054688 109.484375 238.628906 109.390625 C 240.136719 109.222656 240.878906 108.152344 241.695312 107.109375 C 243.246094 105.039062 245.1875 103.445312 247.523438 102.328125 C 248.25 102.070312 248.890625 101.675781 249.445312 101.132812 C 249.996094 100.59375 250.40625 99.960938 250.675781 99.238281 C 250.890625 98.542969 251.25 97.925781 251.753906 97.394531 C 252.253906 96.863281 252.847656 96.472656 253.535156 96.21875 C 253.953125 96.078125 254.300781 95.835938 254.574219 95.492188 C 256.351562 92.933594 258.945312 91.121094 261.089844 88.988281 C 262.457031 87.734375 263.753906 86.410156 264.980469 85.011719 C 265.417969 84.359375 266.007812 83.90625 266.75 83.652344 C 268.453125 83.339844 269.421875 82.261719 270.269531 80.921875 C 270.832031 79.976562 271.449219 79.0625 272.113281 78.183594 C 272.527344 77.535156 273.082031 77.050781 273.78125 76.726562 C 274.867188 76.347656 275.671875 75.648438 276.191406 74.621094 C 276.972656 73.445312 277.554688 72.089844 279.230469 71.835938 C 279.527344 71.785156 279.8125 71.238281 279.957031 70.859375 C 280.171875 70.351562 280.339844 69.828125 280.460938 69.292969 C 280.488281 69.183594 280.488281 69.078125 280.460938 68.96875 C 280.4375 68.859375 280.386719 68.765625 280.3125 68.683594 C 280.238281 68.597656 280.152344 68.535156 280.046875 68.496094 C 279.945312 68.457031 279.835938 68.441406 279.726562 68.457031 C 278.632812 68.558594 277.539062 68.734375 276.445312 68.761719 C 274.363281 68.820312 272.804688 69.578125 272.992188 72.046875 C 273.046875 72.601562 272.96875 73.132812 272.757812 73.648438 C 272.546875 74.164062 272.226562 74.601562 271.800781 74.957031 C 270.09375 76.515625 268.453125 78.167969 266.617188 79.546875 C 265.007812 80.746094 263.433594 81.933594 262.414062 83.671875 C 261.394531 85.414062 259.261719 86.171875 258.320312 88.113281 Z M 161.8125 67.539062 L 161.976562 67.589844 C 162.644531 65.738281 163.359375 63.898438 163.957031 62.019531 C 164.175781 61.382812 164.175781 60.746094 163.957031 60.113281 C 163.335938 58.773438 163.738281 57.492188 164.023438 56.238281 C 164.511719 54.121094 165.652344 52.160156 165.480469 49.882812 C 165.480469 49.53125 165.601562 49.230469 165.851562 48.980469 C 166.628906 48.191406 166.652344 47.269531 166.578125 46.234375 C 166.640625 45.359375 166.753906 44.488281 166.929688 43.628906 C 166.992188 42.15625 167.464844 40.832031 168.347656 39.652344 C 168.75 38.996094 169.078125 38.308594 169.332031 37.585938 C 170.105469 36.011719 170.679688 34.285156 171.722656 32.925781 C 172.929688 31.320312 173.65625 29.519531 173.910156 27.53125 C 174.390625 24.421875 177.171875 23.335938 179.824219 25.046875 C 180.1875 25.285156 180.554688 25.550781 180.925781 25.773438 C 181.914062 26.371094 182.558594 27.226562 182.855469 28.34375 C 183.367188 30.035156 183.882812 31.703125 183.410156 33.492188 C 183.410156 33.585938 183.628906 33.777344 183.765625 33.878906 C 183.90625 33.980469 183.976562 33.820312 184.050781 33.746094 C 184.335938 33.484375 184.546875 33.164062 184.675781 32.796875 C 184.804688 32.429688 184.839844 32.050781 184.777344 31.664062 C 184.53125 29.261719 185.507812 26.933594 185.203125 24.507812 C 185.1875 23.828125 185.363281 23.207031 185.734375 22.636719 C 186.789062 20.824219 186.570312 19.070312 185.734375 17.277344 C 185.355469 16.46875 185.003906 16.273438 184.195312 16.5 C 183.546875 16.632812 182.917969 16.835938 182.316406 17.117188 C 180.398438 18.195312 178.519531 19.300781 176.65625 20.496094 C 175.972656 20.863281 175.386719 21.347656 174.898438 21.953125 C 174.289062 22.839844 174.019531 23.960938 173.398438 24.863281 C 172.722656 25.707031 171.992188 26.503906 171.210938 27.253906 C 171.089844 27.441406 171.011719 27.644531 170.972656 27.863281 C 170.667969 28.796875 170.402344 29.75 170.054688 30.667969 C 169.464844 32.195312 169.324219 33.90625 168.253906 35.238281 C 166.765625 37.222656 165.972656 39.453125 165.871094 41.929688 C 165.679688 43.8125 165.085938 45.558594 164.101562 47.171875 C 163 48.859375 162.445312 50.707031 162.433594 52.722656 C 162.585938 54.832031 162.34375 56.894531 161.703125 58.910156 C 160.589844 61.933594 161.273438 65.003906 160.792969 68.003906 C 160.792969 68.078125 160.910156 68.246094 160.96875 68.246094 C 161.15625 68.261719 161.332031 68.21875 161.492188 68.121094 C 161.628906 67.941406 161.734375 67.75 161.8125 67.539062 Z M 172.816406 63.957031 C 172.425781 64.722656 172.199219 65.53125 172.132812 66.386719 C 172.066406 67.242188 172.167969 68.078125 172.4375 68.894531 C 172.574219 69.550781 172.535156 70.199219 172.3125 70.835938 C 171.617188 72.976562 171.523438 75.140625 172.023438 77.332031 C 172.359375 78.445312 172.246094 79.507812 171.671875 80.519531 C 171.191406 81.304688 171.089844 82.132812 171.367188 83.011719 C 171.652344 84.328125 171.554688 85.617188 171.074219 86.875 C 170.703125 88.152344 170.546875 89.453125 170.601562 90.78125 C 170.601562 93.058594 171.160156 95.324219 170.601562 97.617188 C 170.539062 98.171875 170.609375 98.707031 170.8125 99.226562 C 171.289062 100.945312 171.386719 102.683594 171.109375 104.445312 C 170.992188 105.660156 170.992188 106.871094 171.109375 108.085938 C 171.054688 109.109375 171.316406 110.042969 171.898438 110.890625 C 173.113281 110.613281 173.003906 109.433594 173.492188 108.617188 C 174.691406 106.757812 175.472656 104.734375 175.839844 102.554688 C 176.03125 101.792969 175.992188 101.050781 175.714844 100.316406 C 175.441406 99.769531 175.289062 99.191406 175.257812 98.582031 C 175.222656 97.972656 175.3125 97.382812 175.527344 96.808594 C 175.644531 96.273438 175.671875 95.730469 175.613281 95.183594 C 175.554688 92.6875 175.933594 90.167969 175.015625 87.707031 C 174.722656 86.929688 175.117188 85.878906 174.789062 85.128906 C 174.335938 83.96875 174.292969 82.789062 174.660156 81.597656 C 175.183594 79.851562 175.121094 78.128906 174.46875 76.429688 C 174.324219 76.011719 174.242188 75.582031 174.230469 75.140625 C 174.003906 73.40625 173.957031 71.667969 174.089844 69.925781 C 174.28125 67.453125 173.886719 64.925781 173.71875 62.421875 C 173.71875 62.273438 173.515625 62.144531 173.40625 62.003906 C 173.324219 62.070312 173.203125 62.121094 173.1875 62.203125 C 173.042969 62.695312 172.945312 63.234375 172.816406 63.957031 Z M 202.199219 20.074219 L 202.25 20.007812 C 201.070312 19.199219 199.902344 18.378906 198.710938 17.589844 C 198.421875 17.457031 198.121094 17.375 197.804688 17.34375 C 197.675781 17.730469 197.59375 18.128906 197.566406 18.539062 C 197.570312 18.984375 197.667969 19.40625 197.855469 19.8125 C 198.886719 22.113281 200.042969 24.351562 201.316406 26.523438 C 203.804688 30.410156 205.832031 34.519531 207.402344 38.859375 C 207.816406 40 208.070312 41.210938 209.214844 41.878906 C 209.675781 42.15625 209.828125 41.421875 210.039062 38.667969 C 210.183594 36.789062 210.335938 34.957031 209.515625 33.164062 C 209.335938 32.644531 209.261719 32.105469 209.300781 31.554688 C 209.300781 30.042969 209.566406 28.46875 208.164062 27.316406 C 208.035156 27.210938 208.019531 26.902344 208.019531 26.691406 C 208.019531 24.710938 206.773438 23.503906 205.410156 22.390625 C 204.390625 21.550781 203.277344 20.84375 202.199219 20.074219 Z M 204.21875 74.484375 C 204.347656 74.148438 204.699219 73.707031 204.632812 73.347656 C 204.273438 71.550781 205.675781 70.015625 205.359375 68.253906 C 205.289062 67.878906 205.609375 67.4375 205.761719 67.035156 C 206.074219 66.226562 206.488281 65.441406 206.707031 64.613281 C 207.226562 62.929688 207.734375 61.242188 208.113281 59.515625 C 208.464844 58.355469 208.582031 57.167969 208.472656 55.960938 C 208.179688 54.382812 207.183594 52.953125 207.136719 51.273438 C 206 50.101562 205.828125 48.542969 205.390625 47.070312 C 205.078125 46.023438 204.433594 45.441406 204.3125 45.796875 C 204.132812 46.320312 204.03125 46.859375 204 47.414062 C 204.011719 47.742188 204.089844 48.054688 204.230469 48.351562 C 204.65625 49.621094 204.804688 50.921875 204.667969 52.253906 C 204.445312 53.695312 204.554688 55.113281 205.003906 56.5 C 205.148438 56.910156 205.160156 57.320312 205.046875 57.738281 C 204.542969 59.882812 204.328125 62.054688 204.398438 64.253906 C 204.398438 65.230469 204.027344 66.234375 204.1875 67.167969 C 204.488281 69.375 204.308594 71.542969 203.648438 73.667969 C 203.597656 73.878906 203.582031 74.089844 203.597656 74.300781 C 203.597656 74.382812 203.730469 74.492188 203.824219 74.519531 C 203.917969 74.550781 204.035156 74.484375 204.21875 74.484375 Z M 211.859375 76.953125 C 211.933594 76.742188 211.996094 76.539062 212.078125 76.335938 C 212.34375 75.710938 212.429688 75.066406 212.339844 74.394531 C 212.25 73.722656 211.996094 73.121094 211.574219 72.589844 C 211.269531 72.167969 210.984375 71.324219 210.738281 71.339844 C 210.074219 71.382812 210.199219 72.15625 210.066406 72.65625 C 210.003906 73.316406 209.824219 73.941406 209.535156 74.535156 C 208.429688 75.925781 208.980469 78.015625 207.480469 79.195312 C 207.167969 80.359375 206.847656 81.519531 206.5625 82.691406 C 206.5625 82.8125 206.738281 83.019531 206.863281 83.15625 C 206.984375 83.292969 207.085938 83.15625 207.136719 83.089844 C 207.671875 82.542969 208.117188 81.929688 208.480469 81.257812 C 209.082031 79.667969 209.820312 78.25 211.394531 77.398438 C 211.570312 77.257812 211.722656 77.097656 211.859375 76.917969 Z M 193.601562 56.878906 C 193.667969 56.105469 193.738281 55.253906 193.792969 54.402344 C 193.785156 54.28125 193.730469 54.191406 193.625 54.132812 C 193.507812 54.117188 193.40625 54.144531 193.316406 54.222656 C 193.136719 54.390625 192.992188 54.585938 192.878906 54.808594 C 192.765625 55.027344 192.691406 55.261719 192.660156 55.507812 C 192.625 55.753906 192.632812 55.996094 192.679688 56.238281 C 192.730469 56.480469 192.820312 56.710938 192.945312 56.921875 C 192.996094 57 193.066406 57.046875 193.15625 57.0625 C 193.257812 57.0625 193.355469 57.011719 193.601562 56.878906 Z M 193.398438 61.246094 C 193.238281 61.351562 192.953125 61.429688 192.925781 61.554688 C 192.707031 62.414062 192.855469 63.203125 193.375 63.917969 C 193.457031 63.984375 193.550781 64.007812 193.652344 63.984375 C 193.746094 63.960938 193.816406 63.910156 193.863281 63.824219 C 194.058594 63.4375 194.132812 63.03125 194.089844 62.601562 C 194.050781 62.171875 193.894531 61.785156 193.632812 61.445312 C 193.5625 61.359375 193.484375 61.28125 193.398438 61.210938 Z M 193.308594 68.433594 L 193.46875 68.222656 L 193.195312 68.105469 C 193.164062 68.191406 193.144531 68.273438 193.128906 68.359375 C 193.128906 68.359375 193.246094 68.375 193.308594 68.398438 Z M 193.308594 68.433594 " fill-opacity="1" fill-rule="nonzero"/></g></g></g></g></svg>